<?xml version="1.0" encoding="utf-8" standalone="no"?>
<!DOCTYPE svg PUBLIC "-//W3C//DTD SVG 1.1//EN"
  "http://www.w3.org/Graphics/SVG/1.1/DTD/svg11.dtd">
<svg xmlns:xlink="http://www.w3.org/1999/xlink" width="460.8pt" height="345.6pt" viewBox="0 0 460.8 345.6" xmlns="http://www.w3.org/2000/svg" version="1.1">
 <metadata>
  <rdf:RDF xmlns:dc="http://purl.org/dc/elements/1.1/" xmlns:cc="http://creativecommons.org/ns#" xmlns:rdf="http://www.w3.org/1999/02/22-rdf-syntax-ns#">
   <cc:Work>
    <dc:type rdf:resource="http://purl.org/dc/dcmitype/StillImage"/>
    <dc:date>2023-03-03T12:33:22.204125</dc:date>
    <dc:format>image/svg+xml</dc:format>
    <dc:creator>
     <cc:Agent>
      <dc:title>Matplotlib v3.7.0, https://matplotlib.org/</dc:title>
     </cc:Agent>
    </dc:creator>
   </cc:Work>
  </rdf:RDF>
 </metadata>
 <defs>
  <style type="text/css">*{stroke-linejoin: round; stroke-linecap: butt}</style>
 </defs>
 <g id="figure_1">
  <g id="patch_1">
   <path d="M 0 345.6 
L 460.8 345.6 
L 460.8 0 
L 0 0 
z
" style="fill: #ffffff"/>
  </g>
  <g id="axes_1">
   <g id="patch_2">
    <path d="M 57.6 307.584 
L 414.72 307.584 
L 414.72 41.472 
L 57.6 41.472 
z
" style="fill: #ffffff"/>
   </g>
   <g id="matplotlib.axis_1">
    <g id="xtick_1">
     <g id="line2d_1">
      <path d="M 73.507752 307.584 
L 73.507752 41.472 
" clip-path="url(#pd0653dbcb5)" style="fill: none; stroke: #b0b0b0; stroke-width: 0.8; stroke-linecap: square"/>
     </g>
     <g id="line2d_2">
      <defs>
       <path id="m8c5310d93a" d="M 0 0 
L 0 3.5 
" style="stroke: #000000; stroke-width: 0.8"/>
      </defs>
      <g>
       <use xlink:href="#m8c5310d93a" x="73.507752" y="307.584" style="stroke: #000000; stroke-width: 0.8"/>
      </g>
     </g>
     <g id="text_1">
      <!-- 0.0 -->
      <g transform="translate(65.55619 322.182437) scale(0.1 -0.1)">
       <defs>
        <path id="DejaVuSans-30" d="M 2034 4250 
Q 1547 4250 1301 3770 
Q 1056 3291 1056 2328 
Q 1056 1369 1301 889 
Q 1547 409 2034 409 
Q 2525 409 2770 889 
Q 3016 1369 3016 2328 
Q 3016 3291 2770 3770 
Q 2525 4250 2034 4250 
z
M 2034 4750 
Q 2819 4750 3233 4129 
Q 3647 3509 3647 2328 
Q 3647 1150 3233 529 
Q 2819 -91 2034 -91 
Q 1250 -91 836 529 
Q 422 1150 422 2328 
Q 422 3509 836 4129 
Q 1250 4750 2034 4750 
z
" transform="scale(0.015625)"/>
        <path id="DejaVuSans-2e" d="M 684 794 
L 1344 794 
L 1344 0 
L 684 0 
L 684 794 
z
" transform="scale(0.015625)"/>
       </defs>
       <use xlink:href="#DejaVuSans-30"/>
       <use xlink:href="#DejaVuSans-2e" x="63.623047"/>
       <use xlink:href="#DejaVuSans-30" x="95.410156"/>
      </g>
     </g>
    </g>
    <g id="xtick_2">
     <g id="line2d_3">
      <path d="M 114.129644 307.584 
L 114.129644 41.472 
" clip-path="url(#pd0653dbcb5)" style="fill: none; stroke: #b0b0b0; stroke-width: 0.8; stroke-linecap: square"/>
     </g>
     <g id="line2d_4">
      <g>
       <use xlink:href="#m8c5310d93a" x="114.129644" y="307.584" style="stroke: #000000; stroke-width: 0.8"/>
      </g>
     </g>
     <g id="text_2">
      <!-- 2.5 -->
      <g transform="translate(106.178081 322.182437) scale(0.1 -0.1)">
       <defs>
        <path id="DejaVuSans-32" d="M 1228 531 
L 3431 531 
L 3431 0 
L 469 0 
L 469 531 
Q 828 903 1448 1529 
Q 2069 2156 2228 2338 
Q 2531 2678 2651 2914 
Q 2772 3150 2772 3378 
Q 2772 3750 2511 3984 
Q 2250 4219 1831 4219 
Q 1534 4219 1204 4116 
Q 875 4013 500 3803 
L 500 4441 
Q 881 4594 1212 4672 
Q 1544 4750 1819 4750 
Q 2544 4750 2975 4387 
Q 3406 4025 3406 3419 
Q 3406 3131 3298 2873 
Q 3191 2616 2906 2266 
Q 2828 2175 2409 1742 
Q 1991 1309 1228 531 
z
" transform="scale(0.015625)"/>
        <path id="DejaVuSans-35" d="M 691 4666 
L 3169 4666 
L 3169 4134 
L 1269 4134 
L 1269 2991 
Q 1406 3038 1543 3061 
Q 1681 3084 1819 3084 
Q 2600 3084 3056 2656 
Q 3513 2228 3513 1497 
Q 3513 744 3044 326 
Q 2575 -91 1722 -91 
Q 1428 -91 1123 -41 
Q 819 9 494 109 
L 494 744 
Q 775 591 1075 516 
Q 1375 441 1709 441 
Q 2250 441 2565 725 
Q 2881 1009 2881 1497 
Q 2881 1984 2565 2268 
Q 2250 2553 1709 2553 
Q 1456 2553 1204 2497 
Q 953 2441 691 2322 
L 691 4666 
z
" transform="scale(0.015625)"/>
       </defs>
       <use xlink:href="#DejaVuSans-32"/>
       <use xlink:href="#DejaVuSans-2e" x="63.623047"/>
       <use xlink:href="#DejaVuSans-35" x="95.410156"/>
      </g>
     </g>
    </g>
    <g id="xtick_3">
     <g id="line2d_5">
      <path d="M 154.751535 307.584 
L 154.751535 41.472 
" clip-path="url(#pd0653dbcb5)" style="fill: none; stroke: #b0b0b0; stroke-width: 0.8; stroke-linecap: square"/>
     </g>
     <g id="line2d_6">
      <g>
       <use xlink:href="#m8c5310d93a" x="154.751535" y="307.584" style="stroke: #000000; stroke-width: 0.8"/>
      </g>
     </g>
     <g id="text_3">
      <!-- 5.0 -->
      <g transform="translate(146.799973 322.182437) scale(0.1 -0.1)">
       <use xlink:href="#DejaVuSans-35"/>
       <use xlink:href="#DejaVuSans-2e" x="63.623047"/>
       <use xlink:href="#DejaVuSans-30" x="95.410156"/>
      </g>
     </g>
    </g>
    <g id="xtick_4">
     <g id="line2d_7">
      <path d="M 195.373427 307.584 
L 195.373427 41.472 
" clip-path="url(#pd0653dbcb5)" style="fill: none; stroke: #b0b0b0; stroke-width: 0.8; stroke-linecap: square"/>
     </g>
     <g id="line2d_8">
      <g>
       <use xlink:href="#m8c5310d93a" x="195.373427" y="307.584" style="stroke: #000000; stroke-width: 0.8"/>
      </g>
     </g>
     <g id="text_4">
      <!-- 7.5 -->
      <g transform="translate(187.421865 322.182437) scale(0.1 -0.1)">
       <defs>
        <path id="DejaVuSans-37" d="M 525 4666 
L 3525 4666 
L 3525 4397 
L 1831 0 
L 1172 0 
L 2766 4134 
L 525 4134 
L 525 4666 
z
" transform="scale(0.015625)"/>
       </defs>
       <use xlink:href="#DejaVuSans-37"/>
       <use xlink:href="#DejaVuSans-2e" x="63.623047"/>
       <use xlink:href="#DejaVuSans-35" x="95.410156"/>
      </g>
     </g>
    </g>
    <g id="xtick_5">
     <g id="line2d_9">
      <path d="M 235.995319 307.584 
L 235.995319 41.472 
" clip-path="url(#pd0653dbcb5)" style="fill: none; stroke: #b0b0b0; stroke-width: 0.8; stroke-linecap: square"/>
     </g>
     <g id="line2d_10">
      <g>
       <use xlink:href="#m8c5310d93a" x="235.995319" y="307.584" style="stroke: #000000; stroke-width: 0.8"/>
      </g>
     </g>
     <g id="text_5">
      <!-- 10.0 -->
      <g transform="translate(224.862506 322.182437) scale(0.1 -0.1)">
       <defs>
        <path id="DejaVuSans-31" d="M 794 531 
L 1825 531 
L 1825 4091 
L 703 3866 
L 703 4441 
L 1819 4666 
L 2450 4666 
L 2450 531 
L 3481 531 
L 3481 0 
L 794 0 
L 794 531 
z
" transform="scale(0.015625)"/>
       </defs>
       <use xlink:href="#DejaVuSans-31"/>
       <use xlink:href="#DejaVuSans-30" x="63.623047"/>
       <use xlink:href="#DejaVuSans-2e" x="127.246094"/>
       <use xlink:href="#DejaVuSans-30" x="159.033203"/>
      </g>
     </g>
    </g>
    <g id="xtick_6">
     <g id="line2d_11">
      <path d="M 276.617211 307.584 
L 276.617211 41.472 
" clip-path="url(#pd0653dbcb5)" style="fill: none; stroke: #b0b0b0; stroke-width: 0.8; stroke-linecap: square"/>
     </g>
     <g id="line2d_12">
      <g>
       <use xlink:href="#m8c5310d93a" x="276.617211" y="307.584" style="stroke: #000000; stroke-width: 0.8"/>
      </g>
     </g>
     <g id="text_6">
      <!-- 12.5 -->
      <g transform="translate(265.484398 322.182437) scale(0.1 -0.1)">
       <use xlink:href="#DejaVuSans-31"/>
       <use xlink:href="#DejaVuSans-32" x="63.623047"/>
       <use xlink:href="#DejaVuSans-2e" x="127.246094"/>
       <use xlink:href="#DejaVuSans-35" x="159.033203"/>
      </g>
     </g>
    </g>
    <g id="xtick_7">
     <g id="line2d_13">
      <path d="M 317.239102 307.584 
L 317.239102 41.472 
" clip-path="url(#pd0653dbcb5)" style="fill: none; stroke: #b0b0b0; stroke-width: 0.8; stroke-linecap: square"/>
     </g>
     <g id="line2d_14">
      <g>
       <use xlink:href="#m8c5310d93a" x="317.239102" y="307.584" style="stroke: #000000; stroke-width: 0.8"/>
      </g>
     </g>
     <g id="text_7">
      <!-- 15.0 -->
      <g transform="translate(306.10629 322.182437) scale(0.1 -0.1)">
       <use xlink:href="#DejaVuSans-31"/>
       <use xlink:href="#DejaVuSans-35" x="63.623047"/>
       <use xlink:href="#DejaVuSans-2e" x="127.246094"/>
       <use xlink:href="#DejaVuSans-30" x="159.033203"/>
      </g>
     </g>
    </g>
    <g id="xtick_8">
     <g id="line2d_15">
      <path d="M 357.860994 307.584 
L 357.860994 41.472 
" clip-path="url(#pd0653dbcb5)" style="fill: none; stroke: #b0b0b0; stroke-width: 0.8; stroke-linecap: square"/>
     </g>
     <g id="line2d_16">
      <g>
       <use xlink:href="#m8c5310d93a" x="357.860994" y="307.584" style="stroke: #000000; stroke-width: 0.8"/>
      </g>
     </g>
     <g id="text_8">
      <!-- 17.5 -->
      <g transform="translate(346.728181 322.182437) scale(0.1 -0.1)">
       <use xlink:href="#DejaVuSans-31"/>
       <use xlink:href="#DejaVuSans-37" x="63.623047"/>
       <use xlink:href="#DejaVuSans-2e" x="127.246094"/>
       <use xlink:href="#DejaVuSans-35" x="159.033203"/>
      </g>
     </g>
    </g>
    <g id="xtick_9">
     <g id="line2d_17">
      <path d="M 398.482886 307.584 
L 398.482886 41.472 
" clip-path="url(#pd0653dbcb5)" style="fill: none; stroke: #b0b0b0; stroke-width: 0.8; stroke-linecap: square"/>
     </g>
     <g id="line2d_18">
      <g>
       <use xlink:href="#m8c5310d93a" x="398.482886" y="307.584" style="stroke: #000000; stroke-width: 0.8"/>
      </g>
     </g>
     <g id="text_9">
      <!-- 20.0 -->
      <g transform="translate(387.350073 322.182437) scale(0.1 -0.1)">
       <use xlink:href="#DejaVuSans-32"/>
       <use xlink:href="#DejaVuSans-30" x="63.623047"/>
       <use xlink:href="#DejaVuSans-2e" x="127.246094"/>
       <use xlink:href="#DejaVuSans-30" x="159.033203"/>
      </g>
     </g>
    </g>
    <g id="text_10">
     <!-- t [s] -->
     <g transform="translate(226.104531 335.860562) scale(0.1 -0.1)">
      <defs>
       <path id="DejaVuSans-74" d="M 1172 4494 
L 1172 3500 
L 2356 3500 
L 2356 3053 
L 1172 3053 
L 1172 1153 
Q 1172 725 1289 603 
Q 1406 481 1766 481 
L 2356 481 
L 2356 0 
L 1766 0 
Q 1100 0 847 248 
Q 594 497 594 1153 
L 594 3053 
L 172 3053 
L 172 3500 
L 594 3500 
L 594 4494 
L 1172 4494 
z
" transform="scale(0.015625)"/>
       <path id="DejaVuSans-20" transform="scale(0.015625)"/>
       <path id="DejaVuSans-5b" d="M 550 4863 
L 1875 4863 
L 1875 4416 
L 1125 4416 
L 1125 -397 
L 1875 -397 
L 1875 -844 
L 550 -844 
L 550 4863 
z
" transform="scale(0.015625)"/>
       <path id="DejaVuSans-73" d="M 2834 3397 
L 2834 2853 
Q 2591 2978 2328 3040 
Q 2066 3103 1784 3103 
Q 1356 3103 1142 2972 
Q 928 2841 928 2578 
Q 928 2378 1081 2264 
Q 1234 2150 1697 2047 
L 1894 2003 
Q 2506 1872 2764 1633 
Q 3022 1394 3022 966 
Q 3022 478 2636 193 
Q 2250 -91 1575 -91 
Q 1294 -91 989 -36 
Q 684 19 347 128 
L 347 722 
Q 666 556 975 473 
Q 1284 391 1588 391 
Q 1994 391 2212 530 
Q 2431 669 2431 922 
Q 2431 1156 2273 1281 
Q 2116 1406 1581 1522 
L 1381 1569 
Q 847 1681 609 1914 
Q 372 2147 372 2553 
Q 372 3047 722 3315 
Q 1072 3584 1716 3584 
Q 2034 3584 2315 3537 
Q 2597 3491 2834 3397 
z
" transform="scale(0.015625)"/>
       <path id="DejaVuSans-5d" d="M 1947 4863 
L 1947 -844 
L 622 -844 
L 622 -397 
L 1369 -397 
L 1369 4416 
L 622 4416 
L 622 4863 
L 1947 4863 
z
" transform="scale(0.015625)"/>
      </defs>
      <use xlink:href="#DejaVuSans-74"/>
      <use xlink:href="#DejaVuSans-20" x="39.208984"/>
      <use xlink:href="#DejaVuSans-5b" x="70.996094"/>
      <use xlink:href="#DejaVuSans-73" x="110.009766"/>
      <use xlink:href="#DejaVuSans-5d" x="162.109375"/>
     </g>
    </g>
   </g>
   <g id="matplotlib.axis_2">
    <g id="ytick_1">
     <g id="line2d_19">
      <path d="M 57.6 283.783197 
L 414.72 283.783197 
" clip-path="url(#pd0653dbcb5)" style="fill: none; stroke: #b0b0b0; stroke-width: 0.8; stroke-linecap: square"/>
     </g>
     <g id="line2d_20">
      <defs>
       <path id="me1f6bfd014" d="M 0 0 
L -3.5 0 
" style="stroke: #000000; stroke-width: 0.8"/>
      </defs>
      <g>
       <use xlink:href="#me1f6bfd014" x="57.6" y="283.783197" style="stroke: #000000; stroke-width: 0.8"/>
      </g>
     </g>
     <g id="text_11">
      <!-- $\mathdefault{-10^{2}}$ -->
      <g transform="translate(24.6 287.582416) scale(0.1 -0.1)">
       <defs>
        <path id="DejaVuSans-2212" d="M 678 2272 
L 4684 2272 
L 4684 1741 
L 678 1741 
L 678 2272 
z
" transform="scale(0.015625)"/>
       </defs>
       <use xlink:href="#DejaVuSans-2212" transform="translate(0 0.765625)"/>
       <use xlink:href="#DejaVuSans-31" transform="translate(83.789062 0.765625)"/>
       <use xlink:href="#DejaVuSans-30" transform="translate(147.412109 0.765625)"/>
       <use xlink:href="#DejaVuSans-32" transform="translate(211.992188 39.046875) scale(0.7)"/>
      </g>
     </g>
    </g>
    <g id="ytick_2">
     <g id="line2d_21">
      <path d="M 57.6 244.903459 
L 414.72 244.903459 
" clip-path="url(#pd0653dbcb5)" style="fill: none; stroke: #b0b0b0; stroke-width: 0.8; stroke-linecap: square"/>
     </g>
     <g id="line2d_22">
      <g>
       <use xlink:href="#me1f6bfd014" x="57.6" y="244.903459" style="stroke: #000000; stroke-width: 0.8"/>
      </g>
     </g>
     <g id="text_12">
      <!-- $\mathdefault{-10^{1}}$ -->
      <g transform="translate(24.6 248.702677) scale(0.1 -0.1)">
       <use xlink:href="#DejaVuSans-2212" transform="translate(0 0.684375)"/>
       <use xlink:href="#DejaVuSans-31" transform="translate(83.789062 0.684375)"/>
       <use xlink:href="#DejaVuSans-30" transform="translate(147.412109 0.684375)"/>
       <use xlink:href="#DejaVuSans-31" transform="translate(211.992188 38.965625) scale(0.7)"/>
      </g>
     </g>
    </g>
    <g id="ytick_3">
     <g id="line2d_23">
      <path d="M 57.6 196.127833 
L 414.72 196.127833 
" clip-path="url(#pd0653dbcb5)" style="fill: none; stroke: #b0b0b0; stroke-width: 0.8; stroke-linecap: square"/>
     </g>
     <g id="line2d_24">
      <g>
       <use xlink:href="#me1f6bfd014" x="57.6" y="196.127833" style="stroke: #000000; stroke-width: 0.8"/>
      </g>
     </g>
     <g id="text_13">
      <!-- $\mathdefault{-10^{0}}$ -->
      <g transform="translate(24.6 199.927052) scale(0.1 -0.1)">
       <use xlink:href="#DejaVuSans-2212" transform="translate(0 0.765625)"/>
       <use xlink:href="#DejaVuSans-31" transform="translate(83.789062 0.765625)"/>
       <use xlink:href="#DejaVuSans-30" transform="translate(147.412109 0.765625)"/>
       <use xlink:href="#DejaVuSans-30" transform="translate(211.992188 39.046875) scale(0.7)"/>
      </g>
     </g>
    </g>
    <g id="ytick_4">
     <g id="line2d_25">
      <path d="M 57.6 174.527979 
L 414.72 174.527979 
" clip-path="url(#pd0653dbcb5)" style="fill: none; stroke: #b0b0b0; stroke-width: 0.8; stroke-linecap: square"/>
     </g>
     <g id="line2d_26">
      <g>
       <use xlink:href="#me1f6bfd014" x="57.6" y="174.527979" style="stroke: #000000; stroke-width: 0.8"/>
      </g>
     </g>
     <g id="text_14">
      <!-- $\mathdefault{0}$ -->
      <g transform="translate(44.2 178.327198) scale(0.1 -0.1)">
       <use xlink:href="#DejaVuSans-30" transform="translate(0 0.78125)"/>
      </g>
     </g>
    </g>
    <g id="ytick_5">
     <g id="line2d_27">
      <path d="M 57.6 152.928124 
L 414.72 152.928124 
" clip-path="url(#pd0653dbcb5)" style="fill: none; stroke: #b0b0b0; stroke-width: 0.8; stroke-linecap: square"/>
     </g>
     <g id="line2d_28">
      <g>
       <use xlink:href="#me1f6bfd014" x="57.6" y="152.928124" style="stroke: #000000; stroke-width: 0.8"/>
      </g>
     </g>
     <g id="text_15">
      <!-- $\mathdefault{10^{0}}$ -->
      <g transform="translate(33 156.727343) scale(0.1 -0.1)">
       <use xlink:href="#DejaVuSans-31" transform="translate(0 0.765625)"/>
       <use xlink:href="#DejaVuSans-30" transform="translate(63.623047 0.765625)"/>
       <use xlink:href="#DejaVuSans-30" transform="translate(128.203125 39.046875) scale(0.7)"/>
      </g>
     </g>
    </g>
    <g id="ytick_6">
     <g id="line2d_29">
      <path d="M 57.6 104.152499 
L 414.72 104.152499 
" clip-path="url(#pd0653dbcb5)" style="fill: none; stroke: #b0b0b0; stroke-width: 0.8; stroke-linecap: square"/>
     </g>
     <g id="line2d_30">
      <g>
       <use xlink:href="#me1f6bfd014" x="57.6" y="104.152499" style="stroke: #000000; stroke-width: 0.8"/>
      </g>
     </g>
     <g id="text_16">
      <!-- $\mathdefault{10^{1}}$ -->
      <g transform="translate(33 107.951718) scale(0.1 -0.1)">
       <use xlink:href="#DejaVuSans-31" transform="translate(0 0.684375)"/>
       <use xlink:href="#DejaVuSans-30" transform="translate(63.623047 0.684375)"/>
       <use xlink:href="#DejaVuSans-31" transform="translate(128.203125 38.965625) scale(0.7)"/>
      </g>
     </g>
    </g>
    <g id="ytick_7">
     <g id="line2d_31">
      <path d="M 57.6 65.272761 
L 414.72 65.272761 
" clip-path="url(#pd0653dbcb5)" style="fill: none; stroke: #b0b0b0; stroke-width: 0.8; stroke-linecap: square"/>
     </g>
     <g id="line2d_32">
      <g>
       <use xlink:href="#me1f6bfd014" x="57.6" y="65.272761" style="stroke: #000000; stroke-width: 0.8"/>
      </g>
     </g>
     <g id="text_17">
      <!-- $\mathdefault{10^{2}}$ -->
      <g transform="translate(33 69.07198) scale(0.1 -0.1)">
       <use xlink:href="#DejaVuSans-31" transform="translate(0 0.765625)"/>
       <use xlink:href="#DejaVuSans-30" transform="translate(63.623047 0.765625)"/>
       <use xlink:href="#DejaVuSans-32" transform="translate(128.203125 39.046875) scale(0.7)"/>
      </g>
     </g>
    </g>
    <g id="text_18">
     <!-- x [m] -->
     <g transform="translate(18.520313 187.848312) rotate(-90) scale(0.1 -0.1)">
      <defs>
       <path id="DejaVuSans-78" d="M 3513 3500 
L 2247 1797 
L 3578 0 
L 2900 0 
L 1881 1375 
L 863 0 
L 184 0 
L 1544 1831 
L 300 3500 
L 978 3500 
L 1906 2253 
L 2834 3500 
L 3513 3500 
z
" transform="scale(0.015625)"/>
       <path id="DejaVuSans-6d" d="M 3328 2828 
Q 3544 3216 3844 3400 
Q 4144 3584 4550 3584 
Q 5097 3584 5394 3201 
Q 5691 2819 5691 2113 
L 5691 0 
L 5113 0 
L 5113 2094 
Q 5113 2597 4934 2840 
Q 4756 3084 4391 3084 
Q 3944 3084 3684 2787 
Q 3425 2491 3425 1978 
L 3425 0 
L 2847 0 
L 2847 2094 
Q 2847 2600 2669 2842 
Q 2491 3084 2119 3084 
Q 1678 3084 1418 2786 
Q 1159 2488 1159 1978 
L 1159 0 
L 581 0 
L 581 3500 
L 1159 3500 
L 1159 2956 
Q 1356 3278 1631 3431 
Q 1906 3584 2284 3584 
Q 2666 3584 2933 3390 
Q 3200 3197 3328 2828 
z
" transform="scale(0.015625)"/>
      </defs>
      <use xlink:href="#DejaVuSans-78"/>
      <use xlink:href="#DejaVuSans-20" x="59.179688"/>
      <use xlink:href="#DejaVuSans-5b" x="90.966797"/>
      <use xlink:href="#DejaVuSans-6d" x="129.980469"/>
      <use xlink:href="#DejaVuSans-5d" x="227.392578"/>
     </g>
    </g>
   </g>
   <g id="line2d_33">
    <path d="M 73.832727 131.32827 
L 75.132628 131.500961 
L 76.432528 131.948898 
L 77.732429 132.669189 
L 79.032329 133.657253 
L 80.33223 134.906761 
L 81.957106 136.823964 
L 83.58198 139.117912 
L 85.206854 141.765665 
L 87.156703 145.372517 
L 89.431527 150.106557 
L 92.031335 156.09621 
L 95.28107 164.226293 
L 101.130622 179.666815 
L 105.355299 190.521779 
L 108.280075 197.448362 
L 110.554901 202.334314 
L 112.829711 206.676144 
L 114.779562 209.899879 
L 116.404437 212.199464 
L 118.029313 214.122607 
L 119.329213 215.377084 
L 120.629114 216.370245 
L 121.929015 217.095741 
L 123.228915 217.548949 
L 124.528816 217.726975 
L 125.828716 217.628653 
L 127.128617 217.254608 
L 128.428501 216.607282 
L 129.728401 215.690757 
L 131.028302 214.51093 
L 132.653178 212.677512 
L 134.278053 210.462922 
L 135.902929 207.889257 
L 137.85278 204.36334 
L 140.127606 199.711336 
L 142.727407 193.797067 
L 145.652183 186.563163 
L 150.201819 174.627808 
L 155.726396 160.214634 
L 158.651172 153.14819 
L 161.250973 147.440249 
L 163.525799 143.008888 
L 165.47565 139.698516 
L 167.100509 137.320761 
L 168.725385 135.314761 
L 170.350261 133.700582 
L 171.650161 132.702323 
L 172.950062 131.9716 
L 174.249962 131.513121 
L 175.549863 131.329803 
L 176.849763 131.422812 
L 178.149664 131.791544 
L 179.449564 132.433664 
L 180.749465 133.345048 
L 182.049365 134.519864 
L 183.674225 136.347255 
L 185.299101 138.556143 
L 186.923976 141.124452 
L 188.873827 144.644515 
L 191.148653 149.290579 
L 193.748454 155.199353 
L 196.67323 162.428896 
L 201.222866 174.361605 
L 206.747524 188.778522 
L 209.672366 195.849917 
L 212.272232 201.563826 
L 214.547106 206.001516 
L 216.497006 209.318022 
L 218.121914 211.70135 
L 219.746822 213.713225 
L 221.371747 215.333582 
L 222.671663 216.336938 
L 223.971596 217.072845 
L 225.271529 217.536594 
L 226.571462 217.725226 
L 227.871395 217.637552 
L 229.171312 217.274113 
L 230.471245 216.637219 
L 231.771178 215.730976 
L 233.071111 214.561171 
L 234.69602 212.739806 
L 236.320944 210.536643 
L 237.94582 207.973669 
L 239.89567 204.45948 
L 242.170659 199.819357 
L 244.77046 193.916108 
L 247.695399 186.690941 
L 252.24505 174.76091 
L 257.76979 160.340287 
L 260.694566 153.263955 
L 263.29453 147.54408 
L 265.569356 143.100061 
L 267.519207 139.777442 
L 269.144245 137.388563 
L 270.769121 135.370791 
L 272.393996 133.744278 
L 273.693897 132.735846 
L 274.993797 131.994733 
L 276.29386 131.525693 
L 277.593761 131.331747 
L 278.893661 131.414108 
L 280.193562 131.772255 
L 281.493462 132.403921 
L 282.793525 133.305024 
L 284.093426 134.469839 
L 285.718302 136.285156 
L 287.343177 138.482595 
L 288.968053 141.040212 
L 290.918066 144.548547 
L 293.192892 149.182688 
L 295.792693 155.080418 
L 298.717632 162.301189 
L 303.267284 174.228511 
L 309.116999 189.466488 
L 312.041937 196.482568 
L 314.641738 202.130066 
L 316.916564 206.497708 
L 318.866578 209.74639 
L 320.491453 212.06844 
L 322.116329 214.015386 
L 323.741205 215.567767 
L 325.041105 216.515029 
L 326.341168 217.193718 
L 327.641069 217.599493 
L 328.940969 217.728482 
L 330.24087 217.583617 
L 331.54077 217.162096 
L 332.840833 216.467833 
L 334.140734 215.505301 
L 335.440634 214.280654 
L 337.06551 212.393301 
L 338.690386 210.127628 
L 340.315424 207.506226 
L 342.265275 203.928124 
L 344.540101 199.223157 
L 347.139902 193.260144 
L 350.389816 185.152507 
L 355.914555 170.579264 
L 360.464207 158.84375 
L 363.389146 151.890338 
L 365.663972 146.977127 
L 367.938798 142.603048 
L 369.888811 139.348166 
L 371.513687 137.020501 
L 373.138562 135.067615 
L 374.763438 133.509034 
L 376.063501 132.556654 
L 377.363402 131.872737 
L 378.663302 131.461692 
L 379.963203 131.327434 
L 381.263103 131.466919 
L 382.563004 131.88317 
L 383.863067 132.572205 
L 385.162967 133.529619 
L 386.462868 134.749298 
L 388.087743 136.630645 
L 389.712619 138.890681 
L 391.337657 141.506791 
L 393.287508 145.079126 
L 395.562334 149.778239 
L 398.162298 155.735874 
L 398.487273 156.517605 
L 398.487273 156.517605 
" clip-path="url(#pd0653dbcb5)" style="fill: none; stroke: #1f77b4; stroke-width: 1.5; stroke-linecap: square"/>
   </g>
   <g id="line2d_34">
    <path d="M 73.832727 174.527979 
L 79.357305 188.935475 
L 82.282081 195.994452 
L 84.88188 201.693382 
L 87.156703 206.115239 
L 89.106552 209.416388 
L 90.731434 211.785827 
L 92.356294 213.782993 
L 93.981169 215.387905 
L 95.28107 216.378518 
L 96.58097 217.101422 
L 97.880871 217.551995 
L 99.180771 217.727342 
L 100.480672 217.626363 
L 101.780572 217.249683 
L 103.080473 216.599722 
L 104.380374 215.680627 
L 105.680274 214.498315 
L 107.30515 212.661896 
L 108.930025 210.444433 
L 110.554901 207.86811 
L 112.504736 204.339277 
L 114.779562 199.684271 
L 117.379363 193.76727 
L 120.304139 186.531197 
L 124.853791 174.594532 
L 130.378352 160.183243 
L 133.303128 153.119287 
L 135.902929 147.414351 
L 138.177755 142.986165 
L 140.127606 139.67886 
L 141.752481 137.30387 
L 143.377357 135.300807 
L 145.002233 133.689717 
L 146.302133 132.694007 
L 147.602034 131.965898 
L 148.901934 131.510054 
L 150.201819 131.329371 
L 151.501719 131.425037 
L 152.80162 131.796425 
L 154.10152 132.441159 
L 155.401421 133.355114 
L 156.701321 134.532435 
L 158.326197 136.362829 
L 159.951073 138.574567 
L 161.575948 141.145555 
L 163.525799 144.668556 
L 165.800625 149.317601 
L 168.40041 155.229118 
L 171.325186 162.460842 
L 175.874838 174.394877 
L 181.399415 188.809928 
L 184.324175 195.87885 
L 186.923976 201.589767 
L 189.198802 206.024304 
L 191.148653 209.337743 
L 192.773529 211.718284 
L 194.398404 213.727222 
L 196.02328 215.34449 
L 197.32318 216.345297 
L 198.623081 217.078612 
L 199.922982 217.539726 
L 201.222866 217.725722 
L 202.522766 217.63537 
L 203.822683 217.269274 
L 205.122616 216.629767 
L 206.422533 215.720953 
L 207.722466 214.548643 
L 209.34739 212.724276 
L 210.972299 210.51824 
L 212.597207 207.952587 
L 214.547106 204.435461 
L 216.821981 199.792378 
L 219.421847 193.886354 
L 222.346688 186.658999 
L 226.896438 174.727625 
L 232.421145 160.308851 
L 235.345986 153.234985 
L 237.94582 147.518095 
L 240.220808 143.077252 
L 242.170659 139.757678 
L 243.795534 137.371585 
L 245.42041 135.356751 
L 247.045286 133.733327 
L 248.345349 132.727422 
L 249.645249 131.988923 
L 250.94515 131.522517 
L 252.24505 131.331207 
L 253.544951 131.416246 
L 254.845014 131.77705 
L 256.144915 132.411308 
L 257.444815 133.315003 
L 258.744716 134.482302 
L 260.369591 136.300643 
L 261.994629 138.500955 
L 263.619505 141.061229 
L 265.569356 144.572501 
L 267.844182 149.209623 
L 270.444145 155.110127 
L 273.368922 162.333098 
L 277.918736 174.26178 
L 283.443476 188.684243 
L 286.368252 195.763038 
L 288.968053 201.485893 
L 291.243041 205.933044 
L 293.192892 209.258731 
L 294.817768 211.650374 
L 296.442644 213.671084 
L 298.067682 215.300663 
L 299.367582 216.311666 
L 300.667483 217.055371 
L 301.967383 217.527025 
L 303.267284 217.723649 
L 304.567347 217.643945 
L 305.867247 217.288433 
L 307.167148 216.659402 
L 308.467048 215.76087 
L 309.766949 214.59856 
L 311.391987 212.786268 
L 313.016863 210.591679 
L 314.641738 208.036762 
L 316.591589 204.531365 
L 318.866578 199.900205 
L 321.466379 194.005244 
L 324.391155 186.786683 
L 328.940969 174.860724 
L 334.790684 159.620699 
L 337.71546 152.602075 
L 340.315424 146.951509 
L 342.59025 142.580649 
L 344.540101 139.328856 
L 346.164976 137.003999 
L 347.790015 135.054094 
L 349.41489 133.498602 
L 350.714791 132.54877 
L 352.014691 131.867467 
L 353.314592 131.459057 
L 354.614655 131.327442 
L 355.914555 131.469619 
L 357.214456 131.888505 
L 358.514356 132.580133 
L 359.814257 133.540117 
L 361.114157 134.76228 
L 362.739196 136.646629 
L 364.364071 138.909495 
L 365.988947 141.52824 
L 367.938798 145.103469 
L 370.213786 149.805498 
L 372.813587 155.76584 
L 376.063501 163.871205 
L 381.588078 178.443555 
L 386.137893 190.18119 
L 389.062669 197.137259 
L 391.337657 202.05317 
L 393.612483 206.430467 
L 395.562334 209.68846 
L 397.187372 212.018911 
L 398.487273 213.614557 
L 398.487273 213.614557 
" clip-path="url(#pd0653dbcb5)" style="fill: none; stroke: #ff7f0e; stroke-width: 1.5; stroke-linecap: square"/>
   </g>
   <g id="line2d_35">
    <path d="M 73.832727 295.487164 
L 75.782578 295.344916 
L 77.732429 294.954739 
L 79.68228 294.304792 
L 81.307157 293.549969 
L 82.932031 292.582074 
L 84.556905 291.375056 
L 86.181779 289.89185 
L 87.806653 288.078903 
L 89.106552 286.338711 
L 90.406459 284.27673 
L 91.70636 281.802865 
L 93.006244 278.774553 
L 93.981169 275.998671 
L 94.956095 272.600745 
L 95.93102 268.263833 
L 96.58097 264.552974 
L 97.230921 259.754065 
L 97.880871 252.984151 
L 98.205846 248.188135 
L 98.530821 241.454137 
L 98.855796 230.069674 
L 99.505747 120.287396 
L 99.830722 108.251877 
L 100.480672 96.396285 
L 101.130622 89.517622 
L 101.780572 84.664177 
L 102.755498 79.32881 
L 103.730423 75.328539 
L 104.705349 72.147059 
L 106.005249 68.744191 
L 107.30515 66.005003 
L 108.60505 63.742972 
L 110.229926 61.417779 
L 111.854785 59.524512 
L 113.479661 57.975526 
L 115.104537 56.712606 
L 116.729412 55.69572 
L 118.679263 54.761274 
L 120.629114 54.107885 
L 122.578965 53.714464 
L 124.528816 53.569072 
L 126.478666 53.667463 
L 128.428501 54.0125 
L 130.378352 54.614564 
L 132.328203 55.492804 
L 133.953078 56.457236 
L 135.577954 57.660332 
L 137.20283 59.138925 
L 138.827705 60.946263 
L 140.127606 62.680929 
L 141.427506 64.73599 
L 142.727407 67.200795 
L 144.027307 70.216568 
L 145.002233 72.979196 
L 145.977158 76.358038 
L 146.952084 80.664814 
L 147.602034 84.343368 
L 148.251984 89.088933 
L 148.901934 95.753508 
L 149.226909 100.445682 
L 149.551868 106.975953 
L 149.876843 117.778425 
L 150.201819 164.545062 
L 150.526794 227.358837 
L 150.851769 240.128015 
L 151.501719 252.328825 
L 152.151669 259.319785 
L 152.80162 264.229013 
L 153.776545 269.60999 
L 154.751471 273.636439 
L 155.726396 276.835013 
L 157.026296 280.253285 
L 158.326197 283.003175 
L 159.626098 285.273148 
L 161.250973 287.605922 
L 162.875849 289.505069 
L 164.500725 291.05887 
L 166.1256 292.32585 
L 167.75046 293.346289 
L 169.70031 294.284533 
L 171.650161 294.941368 
L 173.600012 295.338044 
L 175.549863 295.486565 
L 177.499714 295.391314 
L 179.449564 295.04948 
L 181.399415 294.450823 
L 183.349266 293.576291 
L 184.974125 292.615313 
L 186.599001 291.416139 
L 188.223877 289.942153 
L 189.848752 288.140391 
L 191.148653 286.411225 
L 192.448553 284.363062 
L 193.748454 281.907257 
L 195.048355 278.90393 
L 196.02328 276.154445 
L 196.998205 272.794495 
L 197.973131 268.517448 
L 198.623081 264.87066 
L 199.273031 260.177278 
L 199.922982 253.614789 
L 200.247957 249.022054 
L 200.572916 242.683412 
L 200.897891 232.404592 
L 201.222866 191.165379 
L 201.547841 123.235256 
L 201.872816 109.632192 
L 202.522766 97.064592 
L 203.172717 89.957604 
L 203.822683 84.991325 
L 204.797625 79.563977 
L 205.772583 75.511022 
L 206.747524 72.295197 
L 208.047457 68.861396 
L 209.34739 66.100742 
L 210.647307 63.822772 
L 212.272232 61.482408 
L 213.89714 59.577332 
L 215.522048 58.01872 
L 217.146972 56.747659 
L 218.771881 55.723667 
L 220.72178 54.781627 
L 222.671663 54.12134 
L 224.621563 53.721423 
L 226.571462 53.569756 
L 228.521362 53.661876 
L 230.471245 54.000491 
L 232.421145 54.595757 
L 234.371044 55.466578 
L 235.995969 56.424119 
L 237.620844 57.619363 
L 239.24572 59.088779 
L 240.870758 60.884978 
L 242.170659 62.608657 
L 243.470559 64.649943 
L 244.77046 67.096801 
L 246.07036 70.087764 
L 247.045286 72.824212 
L 248.020374 76.165465 
L 248.995299 80.413159 
L 249.645249 84.028709 
L 250.2952 88.67102 
L 250.94515 95.134482 
L 251.270125 99.63189 
L 251.5951 105.789898 
L 251.920075 115.594701 
L 252.24505 151.23489 
L 252.570026 224.127899 
L 252.895001 238.688673 
L 253.544951 251.646899 
L 254.194901 258.873892 
L 254.845014 263.898561 
L 255.819939 269.37307 
L 256.794865 273.452868 
L 257.76979 276.686125 
L 259.069691 280.135577 
L 260.369591 282.907069 
L 261.669654 285.193081 
L 263.29453 287.541074 
L 264.919406 289.452081 
L 266.544281 291.015532 
L 268.169157 292.290679 
L 269.794195 293.318233 
L 271.744046 294.264077 
L 273.693897 294.927829 
L 275.643748 295.330999 
L 277.593761 295.485805 
L 279.543612 295.396815 
L 281.493462 295.061407 
L 283.443476 294.469538 
L 285.393326 293.602412 
L 287.018202 292.648317 
L 288.643078 291.456961 
L 290.268116 289.99212 
L 291.892992 288.201474 
L 293.517867 286.007088 
L 294.817768 283.881402 
L 296.117668 281.323816 
L 297.417731 278.178849 
L 298.392657 275.278643 
L 299.367582 271.699887 
L 300.342508 267.073064 
L 300.992458 263.045165 
L 301.642408 257.708021 
L 302.292358 249.816568 
L 302.617334 243.829071 
L 302.942309 234.455359 
L 303.267284 204.474795 
L 303.592259 126.809159 
L 303.917234 111.135666 
L 304.567347 97.760641 
L 305.217297 90.409537 
L 305.867247 85.325119 
L 306.842173 79.802645 
L 307.817098 75.695677 
L 308.792024 72.444821 
L 310.091924 68.979595 
L 311.391987 66.197198 
L 312.691888 63.903123 
L 314.316763 61.547448 
L 315.941639 59.6305 
L 317.566515 58.062202 
L 319.191553 56.782968 
L 320.816428 55.751833 
L 322.766279 54.802186 
L 324.71613 54.134963 
L 326.666143 53.728555 
L 328.615994 53.5706 
L 330.565845 53.656461 
L 332.515858 53.988656 
L 334.465709 54.577132 
L 336.41556 55.440562 
L 338.040436 56.391228 
L 339.665311 57.578675 
L 341.290349 59.038957 
L 342.915225 60.824084 
L 344.540101 63.011463 
L 345.840001 65.129927 
L 347.139902 67.677974 
L 348.439965 70.809583 
L 349.41489 73.695458 
L 350.389816 77.25321 
L 351.364741 81.845939 
L 352.014691 85.835961 
L 352.664642 91.10734 
L 353.314592 98.855732 
L 353.639567 104.681939 
L 353.964542 113.661588 
L 354.289517 137.925816 
L 354.614655 220.128959 
L 354.93963 237.115032 
L 355.58958 250.936139 
L 356.23953 258.41576 
L 356.889481 263.561362 
L 357.864406 269.132631 
L 358.839332 273.267129 
L 359.814257 276.535762 
L 361.114157 280.016893 
L 362.41422 282.810263 
L 363.714121 285.112461 
L 365.338997 287.475827 
L 366.963872 289.398769 
L 368.588748 290.971917 
L 370.213786 292.255251 
L 371.838662 293.289967 
L 373.788513 294.243433 
L 375.738363 294.914114 
L 377.688377 295.32378 
L 379.638228 295.484876 
L 381.588078 295.402144 
L 383.538092 295.073161 
L 385.487942 294.488072 
L 387.437793 293.628332 
L 389.062669 292.681087 
L 390.687707 291.497525 
L 392.312583 290.041787 
L 393.937458 288.262181 
L 395.562334 286.08176 
L 396.862235 283.970492 
L 398.162298 281.431931 
L 398.487273 280.714493 
L 398.487273 280.714493 
" clip-path="url(#pd0653dbcb5)" style="fill: none; stroke: #2ca02c; stroke-width: 1.5; stroke-linecap: square"/>
   </g>
   <g id="patch_3">
    <path d="M 57.6 307.584 
L 57.6 41.472 
" style="fill: none; stroke: #000000; stroke-width: 0.8; stroke-linejoin: miter; stroke-linecap: square"/>
   </g>
   <g id="patch_4">
    <path d="M 414.72 307.584 
L 414.72 41.472 
" style="fill: none; stroke: #000000; stroke-width: 0.8; stroke-linejoin: miter; stroke-linecap: square"/>
   </g>
   <g id="patch_5">
    <path d="M 57.6 307.584 
L 414.72 307.584 
" style="fill: none; stroke: #000000; stroke-width: 0.8; stroke-linejoin: miter; stroke-linecap: square"/>
   </g>
   <g id="patch_6">
    <path d="M 57.6 41.472 
L 414.72 41.472 
" style="fill: none; stroke: #000000; stroke-width: 0.8; stroke-linejoin: miter; stroke-linecap: square"/>
   </g>
   <g id="text_19">
    <!-- Time series of moving object x-axis -->
    <g transform="translate(129.82125 35.472) scale(0.12 -0.12)">
     <defs>
      <path id="DejaVuSans-54" d="M -19 4666 
L 3928 4666 
L 3928 4134 
L 2272 4134 
L 2272 0 
L 1638 0 
L 1638 4134 
L -19 4134 
L -19 4666 
z
" transform="scale(0.015625)"/>
      <path id="DejaVuSans-69" d="M 603 3500 
L 1178 3500 
L 1178 0 
L 603 0 
L 603 3500 
z
M 603 4863 
L 1178 4863 
L 1178 4134 
L 603 4134 
L 603 4863 
z
" transform="scale(0.015625)"/>
      <path id="DejaVuSans-65" d="M 3597 1894 
L 3597 1613 
L 953 1613 
Q 991 1019 1311 708 
Q 1631 397 2203 397 
Q 2534 397 2845 478 
Q 3156 559 3463 722 
L 3463 178 
Q 3153 47 2828 -22 
Q 2503 -91 2169 -91 
Q 1331 -91 842 396 
Q 353 884 353 1716 
Q 353 2575 817 3079 
Q 1281 3584 2069 3584 
Q 2775 3584 3186 3129 
Q 3597 2675 3597 1894 
z
M 3022 2063 
Q 3016 2534 2758 2815 
Q 2500 3097 2075 3097 
Q 1594 3097 1305 2825 
Q 1016 2553 972 2059 
L 3022 2063 
z
" transform="scale(0.015625)"/>
      <path id="DejaVuSans-72" d="M 2631 2963 
Q 2534 3019 2420 3045 
Q 2306 3072 2169 3072 
Q 1681 3072 1420 2755 
Q 1159 2438 1159 1844 
L 1159 0 
L 581 0 
L 581 3500 
L 1159 3500 
L 1159 2956 
Q 1341 3275 1631 3429 
Q 1922 3584 2338 3584 
Q 2397 3584 2469 3576 
Q 2541 3569 2628 3553 
L 2631 2963 
z
" transform="scale(0.015625)"/>
      <path id="DejaVuSans-6f" d="M 1959 3097 
Q 1497 3097 1228 2736 
Q 959 2375 959 1747 
Q 959 1119 1226 758 
Q 1494 397 1959 397 
Q 2419 397 2687 759 
Q 2956 1122 2956 1747 
Q 2956 2369 2687 2733 
Q 2419 3097 1959 3097 
z
M 1959 3584 
Q 2709 3584 3137 3096 
Q 3566 2609 3566 1747 
Q 3566 888 3137 398 
Q 2709 -91 1959 -91 
Q 1206 -91 779 398 
Q 353 888 353 1747 
Q 353 2609 779 3096 
Q 1206 3584 1959 3584 
z
" transform="scale(0.015625)"/>
      <path id="DejaVuSans-66" d="M 2375 4863 
L 2375 4384 
L 1825 4384 
Q 1516 4384 1395 4259 
Q 1275 4134 1275 3809 
L 1275 3500 
L 2222 3500 
L 2222 3053 
L 1275 3053 
L 1275 0 
L 697 0 
L 697 3053 
L 147 3053 
L 147 3500 
L 697 3500 
L 697 3744 
Q 697 4328 969 4595 
Q 1241 4863 1831 4863 
L 2375 4863 
z
" transform="scale(0.015625)"/>
      <path id="DejaVuSans-76" d="M 191 3500 
L 800 3500 
L 1894 563 
L 2988 3500 
L 3597 3500 
L 2284 0 
L 1503 0 
L 191 3500 
z
" transform="scale(0.015625)"/>
      <path id="DejaVuSans-6e" d="M 3513 2113 
L 3513 0 
L 2938 0 
L 2938 2094 
Q 2938 2591 2744 2837 
Q 2550 3084 2163 3084 
Q 1697 3084 1428 2787 
Q 1159 2491 1159 1978 
L 1159 0 
L 581 0 
L 581 3500 
L 1159 3500 
L 1159 2956 
Q 1366 3272 1645 3428 
Q 1925 3584 2291 3584 
Q 2894 3584 3203 3211 
Q 3513 2838 3513 2113 
z
" transform="scale(0.015625)"/>
      <path id="DejaVuSans-67" d="M 2906 1791 
Q 2906 2416 2648 2759 
Q 2391 3103 1925 3103 
Q 1463 3103 1205 2759 
Q 947 2416 947 1791 
Q 947 1169 1205 825 
Q 1463 481 1925 481 
Q 2391 481 2648 825 
Q 2906 1169 2906 1791 
z
M 3481 434 
Q 3481 -459 3084 -895 
Q 2688 -1331 1869 -1331 
Q 1566 -1331 1297 -1286 
Q 1028 -1241 775 -1147 
L 775 -588 
Q 1028 -725 1275 -790 
Q 1522 -856 1778 -856 
Q 2344 -856 2625 -561 
Q 2906 -266 2906 331 
L 2906 616 
Q 2728 306 2450 153 
Q 2172 0 1784 0 
Q 1141 0 747 490 
Q 353 981 353 1791 
Q 353 2603 747 3093 
Q 1141 3584 1784 3584 
Q 2172 3584 2450 3431 
Q 2728 3278 2906 2969 
L 2906 3500 
L 3481 3500 
L 3481 434 
z
" transform="scale(0.015625)"/>
      <path id="DejaVuSans-62" d="M 3116 1747 
Q 3116 2381 2855 2742 
Q 2594 3103 2138 3103 
Q 1681 3103 1420 2742 
Q 1159 2381 1159 1747 
Q 1159 1113 1420 752 
Q 1681 391 2138 391 
Q 2594 391 2855 752 
Q 3116 1113 3116 1747 
z
M 1159 2969 
Q 1341 3281 1617 3432 
Q 1894 3584 2278 3584 
Q 2916 3584 3314 3078 
Q 3713 2572 3713 1747 
Q 3713 922 3314 415 
Q 2916 -91 2278 -91 
Q 1894 -91 1617 61 
Q 1341 213 1159 525 
L 1159 0 
L 581 0 
L 581 4863 
L 1159 4863 
L 1159 2969 
z
" transform="scale(0.015625)"/>
      <path id="DejaVuSans-6a" d="M 603 3500 
L 1178 3500 
L 1178 -63 
Q 1178 -731 923 -1031 
Q 669 -1331 103 -1331 
L -116 -1331 
L -116 -844 
L 38 -844 
Q 366 -844 484 -692 
Q 603 -541 603 -63 
L 603 3500 
z
M 603 4863 
L 1178 4863 
L 1178 4134 
L 603 4134 
L 603 4863 
z
" transform="scale(0.015625)"/>
      <path id="DejaVuSans-63" d="M 3122 3366 
L 3122 2828 
Q 2878 2963 2633 3030 
Q 2388 3097 2138 3097 
Q 1578 3097 1268 2742 
Q 959 2388 959 1747 
Q 959 1106 1268 751 
Q 1578 397 2138 397 
Q 2388 397 2633 464 
Q 2878 531 3122 666 
L 3122 134 
Q 2881 22 2623 -34 
Q 2366 -91 2075 -91 
Q 1284 -91 818 406 
Q 353 903 353 1747 
Q 353 2603 823 3093 
Q 1294 3584 2113 3584 
Q 2378 3584 2631 3529 
Q 2884 3475 3122 3366 
z
" transform="scale(0.015625)"/>
      <path id="DejaVuSans-2d" d="M 313 2009 
L 1997 2009 
L 1997 1497 
L 313 1497 
L 313 2009 
z
" transform="scale(0.015625)"/>
      <path id="DejaVuSans-61" d="M 2194 1759 
Q 1497 1759 1228 1600 
Q 959 1441 959 1056 
Q 959 750 1161 570 
Q 1363 391 1709 391 
Q 2188 391 2477 730 
Q 2766 1069 2766 1631 
L 2766 1759 
L 2194 1759 
z
M 3341 1997 
L 3341 0 
L 2766 0 
L 2766 531 
Q 2569 213 2275 61 
Q 1981 -91 1556 -91 
Q 1019 -91 701 211 
Q 384 513 384 1019 
Q 384 1609 779 1909 
Q 1175 2209 1959 2209 
L 2766 2209 
L 2766 2266 
Q 2766 2663 2505 2880 
Q 2244 3097 1772 3097 
Q 1472 3097 1187 3025 
Q 903 2953 641 2809 
L 641 3341 
Q 956 3463 1253 3523 
Q 1550 3584 1831 3584 
Q 2591 3584 2966 3190 
Q 3341 2797 3341 1997 
z
" transform="scale(0.015625)"/>
     </defs>
     <use xlink:href="#DejaVuSans-54"/>
     <use xlink:href="#DejaVuSans-69" x="57.958984"/>
     <use xlink:href="#DejaVuSans-6d" x="85.742188"/>
     <use xlink:href="#DejaVuSans-65" x="183.154297"/>
     <use xlink:href="#DejaVuSans-20" x="244.677734"/>
     <use xlink:href="#DejaVuSans-73" x="276.464844"/>
     <use xlink:href="#DejaVuSans-65" x="328.564453"/>
     <use xlink:href="#DejaVuSans-72" x="390.087891"/>
     <use xlink:href="#DejaVuSans-69" x="431.201172"/>
     <use xlink:href="#DejaVuSans-65" x="458.984375"/>
     <use xlink:href="#DejaVuSans-73" x="520.507812"/>
     <use xlink:href="#DejaVuSans-20" x="572.607422"/>
     <use xlink:href="#DejaVuSans-6f" x="604.394531"/>
     <use xlink:href="#DejaVuSans-66" x="665.576172"/>
     <use xlink:href="#DejaVuSans-20" x="700.78125"/>
     <use xlink:href="#DejaVuSans-6d" x="732.568359"/>
     <use xlink:href="#DejaVuSans-6f" x="829.980469"/>
     <use xlink:href="#DejaVuSans-76" x="891.162109"/>
     <use xlink:href="#DejaVuSans-69" x="950.341797"/>
     <use xlink:href="#DejaVuSans-6e" x="978.125"/>
     <use xlink:href="#DejaVuSans-67" x="1041.503906"/>
     <use xlink:href="#DejaVuSans-20" x="1104.980469"/>
     <use xlink:href="#DejaVuSans-6f" x="1136.767578"/>
     <use xlink:href="#DejaVuSans-62" x="1197.949219"/>
     <use xlink:href="#DejaVuSans-6a" x="1261.425781"/>
     <use xlink:href="#DejaVuSans-65" x="1289.208984"/>
     <use xlink:href="#DejaVuSans-63" x="1350.732422"/>
     <use xlink:href="#DejaVuSans-74" x="1405.712891"/>
     <use xlink:href="#DejaVuSans-20" x="1444.921875"/>
     <use xlink:href="#DejaVuSans-78" x="1476.708984"/>
     <use xlink:href="#DejaVuSans-2d" x="1535.888672"/>
     <use xlink:href="#DejaVuSans-61" x="1571.972656"/>
     <use xlink:href="#DejaVuSans-78" x="1633.251953"/>
     <use xlink:href="#DejaVuSans-69" x="1692.431641"/>
     <use xlink:href="#DejaVuSans-73" x="1720.214844"/>
    </g>
   </g>
   <g id="legend_1">
    <g id="patch_7">
     <path d="M 64.6 302.584 
L 156.382812 302.584 
Q 158.382812 302.584 158.382812 300.584 
L 158.382812 257.549625 
Q 158.382812 255.549625 156.382812 255.549625 
L 64.6 255.549625 
Q 62.6 255.549625 62.6 257.549625 
L 62.6 300.584 
Q 62.6 302.584 64.6 302.584 
z
" style="fill: #ffffff; opacity: 0.8; stroke: #cccccc; stroke-linejoin: miter"/>
    </g>
    <g id="line2d_36">
     <path d="M 66.6 263.648062 
L 76.6 263.648062 
L 86.6 263.648062 
" style="fill: none; stroke: #1f77b4; stroke-width: 1.5; stroke-linecap: square"/>
    </g>
    <g id="text_20">
     <!-- x(t) -->
     <g transform="translate(94.6 267.148062) scale(0.1 -0.1)">
      <defs>
       <path id="DejaVuSans-28" d="M 1984 4856 
Q 1566 4138 1362 3434 
Q 1159 2731 1159 2009 
Q 1159 1288 1364 580 
Q 1569 -128 1984 -844 
L 1484 -844 
Q 1016 -109 783 600 
Q 550 1309 550 2009 
Q 550 2706 781 3412 
Q 1013 4119 1484 4856 
L 1984 4856 
z
" transform="scale(0.015625)"/>
       <path id="DejaVuSans-29" d="M 513 4856 
L 1013 4856 
Q 1481 4119 1714 3412 
Q 1947 2706 1947 2009 
Q 1947 1309 1714 600 
Q 1481 -109 1013 -844 
L 513 -844 
Q 928 -128 1133 580 
Q 1338 1288 1338 2009 
Q 1338 2731 1133 3434 
Q 928 4138 513 4856 
z
" transform="scale(0.015625)"/>
      </defs>
      <use xlink:href="#DejaVuSans-78"/>
      <use xlink:href="#DejaVuSans-28" x="59.179688"/>
      <use xlink:href="#DejaVuSans-74" x="98.193359"/>
      <use xlink:href="#DejaVuSans-29" x="137.402344"/>
     </g>
    </g>
    <g id="line2d_37">
     <path d="M 66.6 278.326188 
L 76.6 278.326188 
L 86.6 278.326188 
" style="fill: none; stroke: #ff7f0e; stroke-width: 1.5; stroke-linecap: square"/>
    </g>
    <g id="text_21">
     <!-- v(t) -->
     <g transform="translate(94.6 281.826188) scale(0.1 -0.1)">
      <use xlink:href="#DejaVuSans-76"/>
      <use xlink:href="#DejaVuSans-28" x="59.179688"/>
      <use xlink:href="#DejaVuSans-74" x="98.193359"/>
      <use xlink:href="#DejaVuSans-29" x="137.402344"/>
     </g>
    </g>
    <g id="line2d_38">
     <path d="M 66.6 293.004312 
L 76.6 293.004312 
L 86.6 293.004312 
" style="fill: none; stroke: #2ca02c; stroke-width: 1.5; stroke-linecap: square"/>
    </g>
    <g id="text_22">
     <!-- F(t) (added) -->
     <g transform="translate(94.6 296.504312) scale(0.1 -0.1)">
      <defs>
       <path id="DejaVuSans-46" d="M 628 4666 
L 3309 4666 
L 3309 4134 
L 1259 4134 
L 1259 2759 
L 3109 2759 
L 3109 2228 
L 1259 2228 
L 1259 0 
L 628 0 
L 628 4666 
z
" transform="scale(0.015625)"/>
       <path id="DejaVuSans-64" d="M 2906 2969 
L 2906 4863 
L 3481 4863 
L 3481 0 
L 2906 0 
L 2906 525 
Q 2725 213 2448 61 
Q 2172 -91 1784 -91 
Q 1150 -91 751 415 
Q 353 922 353 1747 
Q 353 2572 751 3078 
Q 1150 3584 1784 3584 
Q 2172 3584 2448 3432 
Q 2725 3281 2906 2969 
z
M 947 1747 
Q 947 1113 1208 752 
Q 1469 391 1925 391 
Q 2381 391 2643 752 
Q 2906 1113 2906 1747 
Q 2906 2381 2643 2742 
Q 2381 3103 1925 3103 
Q 1469 3103 1208 2742 
Q 947 2381 947 1747 
z
" transform="scale(0.015625)"/>
      </defs>
      <use xlink:href="#DejaVuSans-46"/>
      <use xlink:href="#DejaVuSans-28" x="57.519531"/>
      <use xlink:href="#DejaVuSans-74" x="96.533203"/>
      <use xlink:href="#DejaVuSans-29" x="135.742188"/>
      <use xlink:href="#DejaVuSans-20" x="174.755859"/>
      <use xlink:href="#DejaVuSans-28" x="206.542969"/>
      <use xlink:href="#DejaVuSans-61" x="245.556641"/>
      <use xlink:href="#DejaVuSans-64" x="306.835938"/>
      <use xlink:href="#DejaVuSans-64" x="370.3125"/>
      <use xlink:href="#DejaVuSans-65" x="433.789062"/>
      <use xlink:href="#DejaVuSans-64" x="495.3125"/>
      <use xlink:href="#DejaVuSans-29" x="558.789062"/>
     </g>
    </g>
   </g>
  </g>
 </g>
 <defs>
  <clipPath id="pd0653dbcb5">
   <rect x="57.6" y="41.472" width="357.12" height="266.112"/>
  </clipPath>
 </defs>
</svg>
