<?xml version="1.0" encoding="utf-8" standalone="no"?>
<!DOCTYPE svg PUBLIC "-//W3C//DTD SVG 1.1//EN"
  "http://www.w3.org/Graphics/SVG/1.1/DTD/svg11.dtd">
<svg xmlns:xlink="http://www.w3.org/1999/xlink" width="460.8pt" height="345.6pt" viewBox="0 0 460.8 345.6" xmlns="http://www.w3.org/2000/svg" version="1.1">
 <metadata>
  <rdf:RDF xmlns:dc="http://purl.org/dc/elements/1.1/" xmlns:cc="http://creativecommons.org/ns#" xmlns:rdf="http://www.w3.org/1999/02/22-rdf-syntax-ns#">
   <cc:Work>
    <dc:type rdf:resource="http://purl.org/dc/dcmitype/StillImage"/>
    <dc:date>2023-03-03T12:33:22.574693</dc:date>
    <dc:format>image/svg+xml</dc:format>
    <dc:creator>
     <cc:Agent>
      <dc:title>Matplotlib v3.7.0, https://matplotlib.org/</dc:title>
     </cc:Agent>
    </dc:creator>
   </cc:Work>
  </rdf:RDF>
 </metadata>
 <defs>
  <style type="text/css">*{stroke-linejoin: round; stroke-linecap: butt}</style>
 </defs>
 <g id="figure_1">
  <g id="patch_1">
   <path d="M 0 345.6 
L 460.8 345.6 
L 460.8 0 
L 0 0 
z
" style="fill: #ffffff"/>
  </g>
  <g id="axes_1">
   <g id="patch_2">
    <path d="M 57.6 307.584 
L 414.72 307.584 
L 414.72 41.472 
L 57.6 41.472 
z
" style="fill: #ffffff"/>
   </g>
   <g id="matplotlib.axis_1">
    <g id="xtick_1">
     <g id="line2d_1">
      <path d="M 73.507752 307.584 
L 73.507752 41.472 
" clip-path="url(#p496bac6b44)" style="fill: none; stroke: #b0b0b0; stroke-width: 0.8; stroke-linecap: square"/>
     </g>
     <g id="line2d_2">
      <defs>
       <path id="m86d79708f2" d="M 0 0 
L 0 3.5 
" style="stroke: #000000; stroke-width: 0.8"/>
      </defs>
      <g>
       <use xlink:href="#m86d79708f2" x="73.507752" y="307.584" style="stroke: #000000; stroke-width: 0.8"/>
      </g>
     </g>
     <g id="text_1">
      <!-- 0.0 -->
      <g transform="translate(65.55619 322.182437) scale(0.1 -0.1)">
       <defs>
        <path id="DejaVuSans-30" d="M 2034 4250 
Q 1547 4250 1301 3770 
Q 1056 3291 1056 2328 
Q 1056 1369 1301 889 
Q 1547 409 2034 409 
Q 2525 409 2770 889 
Q 3016 1369 3016 2328 
Q 3016 3291 2770 3770 
Q 2525 4250 2034 4250 
z
M 2034 4750 
Q 2819 4750 3233 4129 
Q 3647 3509 3647 2328 
Q 3647 1150 3233 529 
Q 2819 -91 2034 -91 
Q 1250 -91 836 529 
Q 422 1150 422 2328 
Q 422 3509 836 4129 
Q 1250 4750 2034 4750 
z
" transform="scale(0.015625)"/>
        <path id="DejaVuSans-2e" d="M 684 794 
L 1344 794 
L 1344 0 
L 684 0 
L 684 794 
z
" transform="scale(0.015625)"/>
       </defs>
       <use xlink:href="#DejaVuSans-30"/>
       <use xlink:href="#DejaVuSans-2e" x="63.623047"/>
       <use xlink:href="#DejaVuSans-30" x="95.410156"/>
      </g>
     </g>
    </g>
    <g id="xtick_2">
     <g id="line2d_3">
      <path d="M 114.129644 307.584 
L 114.129644 41.472 
" clip-path="url(#p496bac6b44)" style="fill: none; stroke: #b0b0b0; stroke-width: 0.8; stroke-linecap: square"/>
     </g>
     <g id="line2d_4">
      <g>
       <use xlink:href="#m86d79708f2" x="114.129644" y="307.584" style="stroke: #000000; stroke-width: 0.8"/>
      </g>
     </g>
     <g id="text_2">
      <!-- 2.5 -->
      <g transform="translate(106.178081 322.182437) scale(0.1 -0.1)">
       <defs>
        <path id="DejaVuSans-32" d="M 1228 531 
L 3431 531 
L 3431 0 
L 469 0 
L 469 531 
Q 828 903 1448 1529 
Q 2069 2156 2228 2338 
Q 2531 2678 2651 2914 
Q 2772 3150 2772 3378 
Q 2772 3750 2511 3984 
Q 2250 4219 1831 4219 
Q 1534 4219 1204 4116 
Q 875 4013 500 3803 
L 500 4441 
Q 881 4594 1212 4672 
Q 1544 4750 1819 4750 
Q 2544 4750 2975 4387 
Q 3406 4025 3406 3419 
Q 3406 3131 3298 2873 
Q 3191 2616 2906 2266 
Q 2828 2175 2409 1742 
Q 1991 1309 1228 531 
z
" transform="scale(0.015625)"/>
        <path id="DejaVuSans-35" d="M 691 4666 
L 3169 4666 
L 3169 4134 
L 1269 4134 
L 1269 2991 
Q 1406 3038 1543 3061 
Q 1681 3084 1819 3084 
Q 2600 3084 3056 2656 
Q 3513 2228 3513 1497 
Q 3513 744 3044 326 
Q 2575 -91 1722 -91 
Q 1428 -91 1123 -41 
Q 819 9 494 109 
L 494 744 
Q 775 591 1075 516 
Q 1375 441 1709 441 
Q 2250 441 2565 725 
Q 2881 1009 2881 1497 
Q 2881 1984 2565 2268 
Q 2250 2553 1709 2553 
Q 1456 2553 1204 2497 
Q 953 2441 691 2322 
L 691 4666 
z
" transform="scale(0.015625)"/>
       </defs>
       <use xlink:href="#DejaVuSans-32"/>
       <use xlink:href="#DejaVuSans-2e" x="63.623047"/>
       <use xlink:href="#DejaVuSans-35" x="95.410156"/>
      </g>
     </g>
    </g>
    <g id="xtick_3">
     <g id="line2d_5">
      <path d="M 154.751535 307.584 
L 154.751535 41.472 
" clip-path="url(#p496bac6b44)" style="fill: none; stroke: #b0b0b0; stroke-width: 0.8; stroke-linecap: square"/>
     </g>
     <g id="line2d_6">
      <g>
       <use xlink:href="#m86d79708f2" x="154.751535" y="307.584" style="stroke: #000000; stroke-width: 0.8"/>
      </g>
     </g>
     <g id="text_3">
      <!-- 5.0 -->
      <g transform="translate(146.799973 322.182437) scale(0.1 -0.1)">
       <use xlink:href="#DejaVuSans-35"/>
       <use xlink:href="#DejaVuSans-2e" x="63.623047"/>
       <use xlink:href="#DejaVuSans-30" x="95.410156"/>
      </g>
     </g>
    </g>
    <g id="xtick_4">
     <g id="line2d_7">
      <path d="M 195.373427 307.584 
L 195.373427 41.472 
" clip-path="url(#p496bac6b44)" style="fill: none; stroke: #b0b0b0; stroke-width: 0.8; stroke-linecap: square"/>
     </g>
     <g id="line2d_8">
      <g>
       <use xlink:href="#m86d79708f2" x="195.373427" y="307.584" style="stroke: #000000; stroke-width: 0.8"/>
      </g>
     </g>
     <g id="text_4">
      <!-- 7.5 -->
      <g transform="translate(187.421865 322.182437) scale(0.1 -0.1)">
       <defs>
        <path id="DejaVuSans-37" d="M 525 4666 
L 3525 4666 
L 3525 4397 
L 1831 0 
L 1172 0 
L 2766 4134 
L 525 4134 
L 525 4666 
z
" transform="scale(0.015625)"/>
       </defs>
       <use xlink:href="#DejaVuSans-37"/>
       <use xlink:href="#DejaVuSans-2e" x="63.623047"/>
       <use xlink:href="#DejaVuSans-35" x="95.410156"/>
      </g>
     </g>
    </g>
    <g id="xtick_5">
     <g id="line2d_9">
      <path d="M 235.995319 307.584 
L 235.995319 41.472 
" clip-path="url(#p496bac6b44)" style="fill: none; stroke: #b0b0b0; stroke-width: 0.8; stroke-linecap: square"/>
     </g>
     <g id="line2d_10">
      <g>
       <use xlink:href="#m86d79708f2" x="235.995319" y="307.584" style="stroke: #000000; stroke-width: 0.8"/>
      </g>
     </g>
     <g id="text_5">
      <!-- 10.0 -->
      <g transform="translate(224.862506 322.182437) scale(0.1 -0.1)">
       <defs>
        <path id="DejaVuSans-31" d="M 794 531 
L 1825 531 
L 1825 4091 
L 703 3866 
L 703 4441 
L 1819 4666 
L 2450 4666 
L 2450 531 
L 3481 531 
L 3481 0 
L 794 0 
L 794 531 
z
" transform="scale(0.015625)"/>
       </defs>
       <use xlink:href="#DejaVuSans-31"/>
       <use xlink:href="#DejaVuSans-30" x="63.623047"/>
       <use xlink:href="#DejaVuSans-2e" x="127.246094"/>
       <use xlink:href="#DejaVuSans-30" x="159.033203"/>
      </g>
     </g>
    </g>
    <g id="xtick_6">
     <g id="line2d_11">
      <path d="M 276.617211 307.584 
L 276.617211 41.472 
" clip-path="url(#p496bac6b44)" style="fill: none; stroke: #b0b0b0; stroke-width: 0.8; stroke-linecap: square"/>
     </g>
     <g id="line2d_12">
      <g>
       <use xlink:href="#m86d79708f2" x="276.617211" y="307.584" style="stroke: #000000; stroke-width: 0.8"/>
      </g>
     </g>
     <g id="text_6">
      <!-- 12.5 -->
      <g transform="translate(265.484398 322.182437) scale(0.1 -0.1)">
       <use xlink:href="#DejaVuSans-31"/>
       <use xlink:href="#DejaVuSans-32" x="63.623047"/>
       <use xlink:href="#DejaVuSans-2e" x="127.246094"/>
       <use xlink:href="#DejaVuSans-35" x="159.033203"/>
      </g>
     </g>
    </g>
    <g id="xtick_7">
     <g id="line2d_13">
      <path d="M 317.239102 307.584 
L 317.239102 41.472 
" clip-path="url(#p496bac6b44)" style="fill: none; stroke: #b0b0b0; stroke-width: 0.8; stroke-linecap: square"/>
     </g>
     <g id="line2d_14">
      <g>
       <use xlink:href="#m86d79708f2" x="317.239102" y="307.584" style="stroke: #000000; stroke-width: 0.8"/>
      </g>
     </g>
     <g id="text_7">
      <!-- 15.0 -->
      <g transform="translate(306.10629 322.182437) scale(0.1 -0.1)">
       <use xlink:href="#DejaVuSans-31"/>
       <use xlink:href="#DejaVuSans-35" x="63.623047"/>
       <use xlink:href="#DejaVuSans-2e" x="127.246094"/>
       <use xlink:href="#DejaVuSans-30" x="159.033203"/>
      </g>
     </g>
    </g>
    <g id="xtick_8">
     <g id="line2d_15">
      <path d="M 357.860994 307.584 
L 357.860994 41.472 
" clip-path="url(#p496bac6b44)" style="fill: none; stroke: #b0b0b0; stroke-width: 0.8; stroke-linecap: square"/>
     </g>
     <g id="line2d_16">
      <g>
       <use xlink:href="#m86d79708f2" x="357.860994" y="307.584" style="stroke: #000000; stroke-width: 0.8"/>
      </g>
     </g>
     <g id="text_8">
      <!-- 17.5 -->
      <g transform="translate(346.728181 322.182437) scale(0.1 -0.1)">
       <use xlink:href="#DejaVuSans-31"/>
       <use xlink:href="#DejaVuSans-37" x="63.623047"/>
       <use xlink:href="#DejaVuSans-2e" x="127.246094"/>
       <use xlink:href="#DejaVuSans-35" x="159.033203"/>
      </g>
     </g>
    </g>
    <g id="xtick_9">
     <g id="line2d_17">
      <path d="M 398.482886 307.584 
L 398.482886 41.472 
" clip-path="url(#p496bac6b44)" style="fill: none; stroke: #b0b0b0; stroke-width: 0.8; stroke-linecap: square"/>
     </g>
     <g id="line2d_18">
      <g>
       <use xlink:href="#m86d79708f2" x="398.482886" y="307.584" style="stroke: #000000; stroke-width: 0.8"/>
      </g>
     </g>
     <g id="text_9">
      <!-- 20.0 -->
      <g transform="translate(387.350073 322.182437) scale(0.1 -0.1)">
       <use xlink:href="#DejaVuSans-32"/>
       <use xlink:href="#DejaVuSans-30" x="63.623047"/>
       <use xlink:href="#DejaVuSans-2e" x="127.246094"/>
       <use xlink:href="#DejaVuSans-30" x="159.033203"/>
      </g>
     </g>
    </g>
    <g id="text_10">
     <!-- t [s] -->
     <g transform="translate(226.104531 335.860562) scale(0.1 -0.1)">
      <defs>
       <path id="DejaVuSans-74" d="M 1172 4494 
L 1172 3500 
L 2356 3500 
L 2356 3053 
L 1172 3053 
L 1172 1153 
Q 1172 725 1289 603 
Q 1406 481 1766 481 
L 2356 481 
L 2356 0 
L 1766 0 
Q 1100 0 847 248 
Q 594 497 594 1153 
L 594 3053 
L 172 3053 
L 172 3500 
L 594 3500 
L 594 4494 
L 1172 4494 
z
" transform="scale(0.015625)"/>
       <path id="DejaVuSans-20" transform="scale(0.015625)"/>
       <path id="DejaVuSans-5b" d="M 550 4863 
L 1875 4863 
L 1875 4416 
L 1125 4416 
L 1125 -397 
L 1875 -397 
L 1875 -844 
L 550 -844 
L 550 4863 
z
" transform="scale(0.015625)"/>
       <path id="DejaVuSans-73" d="M 2834 3397 
L 2834 2853 
Q 2591 2978 2328 3040 
Q 2066 3103 1784 3103 
Q 1356 3103 1142 2972 
Q 928 2841 928 2578 
Q 928 2378 1081 2264 
Q 1234 2150 1697 2047 
L 1894 2003 
Q 2506 1872 2764 1633 
Q 3022 1394 3022 966 
Q 3022 478 2636 193 
Q 2250 -91 1575 -91 
Q 1294 -91 989 -36 
Q 684 19 347 128 
L 347 722 
Q 666 556 975 473 
Q 1284 391 1588 391 
Q 1994 391 2212 530 
Q 2431 669 2431 922 
Q 2431 1156 2273 1281 
Q 2116 1406 1581 1522 
L 1381 1569 
Q 847 1681 609 1914 
Q 372 2147 372 2553 
Q 372 3047 722 3315 
Q 1072 3584 1716 3584 
Q 2034 3584 2315 3537 
Q 2597 3491 2834 3397 
z
" transform="scale(0.015625)"/>
       <path id="DejaVuSans-5d" d="M 1947 4863 
L 1947 -844 
L 622 -844 
L 622 -397 
L 1369 -397 
L 1369 4416 
L 622 4416 
L 622 4863 
L 1947 4863 
z
" transform="scale(0.015625)"/>
      </defs>
      <use xlink:href="#DejaVuSans-74"/>
      <use xlink:href="#DejaVuSans-20" x="39.208984"/>
      <use xlink:href="#DejaVuSans-5b" x="70.996094"/>
      <use xlink:href="#DejaVuSans-73" x="110.009766"/>
      <use xlink:href="#DejaVuSans-5d" x="162.109375"/>
     </g>
    </g>
   </g>
   <g id="matplotlib.axis_2">
    <g id="ytick_1">
     <g id="line2d_19">
      <path d="M 57.6 284.901362 
L 414.72 284.901362 
" clip-path="url(#p496bac6b44)" style="fill: none; stroke: #b0b0b0; stroke-width: 0.8; stroke-linecap: square"/>
     </g>
     <g id="line2d_20">
      <defs>
       <path id="m942b7c894d" d="M 0 0 
L -3.5 0 
" style="stroke: #000000; stroke-width: 0.8"/>
      </defs>
      <g>
       <use xlink:href="#m942b7c894d" x="57.6" y="284.901362" style="stroke: #000000; stroke-width: 0.8"/>
      </g>
     </g>
     <g id="text_11">
      <!-- $\mathdefault{-10^{2}}$ -->
      <g transform="translate(24.6 288.70058) scale(0.1 -0.1)">
       <defs>
        <path id="DejaVuSans-2212" d="M 678 2272 
L 4684 2272 
L 4684 1741 
L 678 1741 
L 678 2272 
z
" transform="scale(0.015625)"/>
       </defs>
       <use xlink:href="#DejaVuSans-2212" transform="translate(0 0.765625)"/>
       <use xlink:href="#DejaVuSans-31" transform="translate(83.789062 0.765625)"/>
       <use xlink:href="#DejaVuSans-30" transform="translate(147.412109 0.765625)"/>
       <use xlink:href="#DejaVuSans-32" transform="translate(211.992188 39.046875) scale(0.7)"/>
      </g>
     </g>
    </g>
    <g id="ytick_2">
     <g id="line2d_21">
      <path d="M 57.6 245.623726 
L 414.72 245.623726 
" clip-path="url(#p496bac6b44)" style="fill: none; stroke: #b0b0b0; stroke-width: 0.8; stroke-linecap: square"/>
     </g>
     <g id="line2d_22">
      <g>
       <use xlink:href="#m942b7c894d" x="57.6" y="245.623726" style="stroke: #000000; stroke-width: 0.8"/>
      </g>
     </g>
     <g id="text_12">
      <!-- $\mathdefault{-10^{1}}$ -->
      <g transform="translate(24.6 249.422944) scale(0.1 -0.1)">
       <use xlink:href="#DejaVuSans-2212" transform="translate(0 0.684375)"/>
       <use xlink:href="#DejaVuSans-31" transform="translate(83.789062 0.684375)"/>
       <use xlink:href="#DejaVuSans-30" transform="translate(147.412109 0.684375)"/>
       <use xlink:href="#DejaVuSans-31" transform="translate(211.992188 38.965625) scale(0.7)"/>
      </g>
     </g>
    </g>
    <g id="ytick_3">
     <g id="line2d_23">
      <path d="M 57.6 196.348927 
L 414.72 196.348927 
" clip-path="url(#p496bac6b44)" style="fill: none; stroke: #b0b0b0; stroke-width: 0.8; stroke-linecap: square"/>
     </g>
     <g id="line2d_24">
      <g>
       <use xlink:href="#m942b7c894d" x="57.6" y="196.348927" style="stroke: #000000; stroke-width: 0.8"/>
      </g>
     </g>
     <g id="text_13">
      <!-- $\mathdefault{-10^{0}}$ -->
      <g transform="translate(24.6 200.148146) scale(0.1 -0.1)">
       <use xlink:href="#DejaVuSans-2212" transform="translate(0 0.765625)"/>
       <use xlink:href="#DejaVuSans-31" transform="translate(83.789062 0.765625)"/>
       <use xlink:href="#DejaVuSans-30" transform="translate(147.412109 0.765625)"/>
       <use xlink:href="#DejaVuSans-30" transform="translate(211.992188 39.046875) scale(0.7)"/>
      </g>
     </g>
    </g>
    <g id="ytick_4">
     <g id="line2d_25">
      <path d="M 57.6 174.528018 
L 414.72 174.528018 
" clip-path="url(#p496bac6b44)" style="fill: none; stroke: #b0b0b0; stroke-width: 0.8; stroke-linecap: square"/>
     </g>
     <g id="line2d_26">
      <g>
       <use xlink:href="#m942b7c894d" x="57.6" y="174.528018" style="stroke: #000000; stroke-width: 0.8"/>
      </g>
     </g>
     <g id="text_14">
      <!-- $\mathdefault{0}$ -->
      <g transform="translate(44.2 178.327237) scale(0.1 -0.1)">
       <use xlink:href="#DejaVuSans-30" transform="translate(0 0.78125)"/>
      </g>
     </g>
    </g>
    <g id="ytick_5">
     <g id="line2d_27">
      <path d="M 57.6 152.707109 
L 414.72 152.707109 
" clip-path="url(#p496bac6b44)" style="fill: none; stroke: #b0b0b0; stroke-width: 0.8; stroke-linecap: square"/>
     </g>
     <g id="line2d_28">
      <g>
       <use xlink:href="#m942b7c894d" x="57.6" y="152.707109" style="stroke: #000000; stroke-width: 0.8"/>
      </g>
     </g>
     <g id="text_15">
      <!-- $\mathdefault{10^{0}}$ -->
      <g transform="translate(33 156.506328) scale(0.1 -0.1)">
       <use xlink:href="#DejaVuSans-31" transform="translate(0 0.765625)"/>
       <use xlink:href="#DejaVuSans-30" transform="translate(63.623047 0.765625)"/>
       <use xlink:href="#DejaVuSans-30" transform="translate(128.203125 39.046875) scale(0.7)"/>
      </g>
     </g>
    </g>
    <g id="ytick_6">
     <g id="line2d_29">
      <path d="M 57.6 103.432311 
L 414.72 103.432311 
" clip-path="url(#p496bac6b44)" style="fill: none; stroke: #b0b0b0; stroke-width: 0.8; stroke-linecap: square"/>
     </g>
     <g id="line2d_30">
      <g>
       <use xlink:href="#m942b7c894d" x="57.6" y="103.432311" style="stroke: #000000; stroke-width: 0.8"/>
      </g>
     </g>
     <g id="text_16">
      <!-- $\mathdefault{10^{1}}$ -->
      <g transform="translate(33 107.23153) scale(0.1 -0.1)">
       <use xlink:href="#DejaVuSans-31" transform="translate(0 0.684375)"/>
       <use xlink:href="#DejaVuSans-30" transform="translate(63.623047 0.684375)"/>
       <use xlink:href="#DejaVuSans-31" transform="translate(128.203125 38.965625) scale(0.7)"/>
      </g>
     </g>
    </g>
    <g id="ytick_7">
     <g id="line2d_31">
      <path d="M 57.6 64.154675 
L 414.72 64.154675 
" clip-path="url(#p496bac6b44)" style="fill: none; stroke: #b0b0b0; stroke-width: 0.8; stroke-linecap: square"/>
     </g>
     <g id="line2d_32">
      <g>
       <use xlink:href="#m942b7c894d" x="57.6" y="64.154675" style="stroke: #000000; stroke-width: 0.8"/>
      </g>
     </g>
     <g id="text_17">
      <!-- $\mathdefault{10^{2}}$ -->
      <g transform="translate(33 67.953894) scale(0.1 -0.1)">
       <use xlink:href="#DejaVuSans-31" transform="translate(0 0.765625)"/>
       <use xlink:href="#DejaVuSans-30" transform="translate(63.623047 0.765625)"/>
       <use xlink:href="#DejaVuSans-32" transform="translate(128.203125 39.046875) scale(0.7)"/>
      </g>
     </g>
    </g>
    <g id="text_18">
     <!-- x [m] -->
     <g transform="translate(18.520313 187.848312) rotate(-90) scale(0.1 -0.1)">
      <defs>
       <path id="DejaVuSans-78" d="M 3513 3500 
L 2247 1797 
L 3578 0 
L 2900 0 
L 1881 1375 
L 863 0 
L 184 0 
L 1544 1831 
L 300 3500 
L 978 3500 
L 1906 2253 
L 2834 3500 
L 3513 3500 
z
" transform="scale(0.015625)"/>
       <path id="DejaVuSans-6d" d="M 3328 2828 
Q 3544 3216 3844 3400 
Q 4144 3584 4550 3584 
Q 5097 3584 5394 3201 
Q 5691 2819 5691 2113 
L 5691 0 
L 5113 0 
L 5113 2094 
Q 5113 2597 4934 2840 
Q 4756 3084 4391 3084 
Q 3944 3084 3684 2787 
Q 3425 2491 3425 1978 
L 3425 0 
L 2847 0 
L 2847 2094 
Q 2847 2600 2669 2842 
Q 2491 3084 2119 3084 
Q 1678 3084 1418 2786 
Q 1159 2488 1159 1978 
L 1159 0 
L 581 0 
L 581 3500 
L 1159 3500 
L 1159 2956 
Q 1356 3278 1631 3431 
Q 1906 3584 2284 3584 
Q 2666 3584 2933 3390 
Q 3200 3197 3328 2828 
z
" transform="scale(0.015625)"/>
      </defs>
      <use xlink:href="#DejaVuSans-78"/>
      <use xlink:href="#DejaVuSans-20" x="59.179688"/>
      <use xlink:href="#DejaVuSans-5b" x="90.966797"/>
      <use xlink:href="#DejaVuSans-6d" x="129.980469"/>
      <use xlink:href="#DejaVuSans-5d" x="227.392578"/>
     </g>
    </g>
   </g>
   <g id="line2d_33">
    <path d="M 73.832727 215.114909 
L 75.132628 214.952649 
L 76.432528 214.531811 
L 77.732429 213.855079 
L 79.032329 212.926795 
L 80.33223 211.752852 
L 81.957106 209.951602 
L 83.58198 207.796416 
L 85.531829 204.773522 
L 87.481678 201.315584 
L 89.756502 196.798198 
L 92.356294 191.107375 
L 95.606045 183.416375 
L 107.30515 155.095803 
L 109.904951 149.666628 
L 112.179761 145.432717 
L 114.129611 142.253978 
L 115.754487 139.957894 
L 117.379363 138.007214 
L 119.004238 136.421467 
L 120.304139 135.426368 
L 121.604039 134.681424 
L 122.90394 134.191348 
L 124.20384 133.959283 
L 125.503741 133.986755 
L 126.803642 134.273547 
L 128.103542 134.817848 
L 129.403426 135.616166 
L 130.703327 136.663395 
L 132.328203 138.312096 
L 133.953078 140.322674 
L 135.577954 142.675034 
L 137.527805 145.915701 
L 139.802631 150.213001 
L 142.402432 155.701484 
L 145.327208 162.443424 
L 149.551868 172.811174 
L 155.726396 187.975677 
L 158.651172 194.614724 
L 161.250973 199.977439 
L 163.525799 204.140781 
L 165.47565 207.250915 
L 167.100509 209.484874 
L 168.725385 211.369546 
L 170.350261 212.886099 
L 171.650161 213.823984 
L 172.950062 214.510492 
L 174.249962 214.941236 
L 175.549863 215.113469 
L 176.849763 215.026098 
L 178.149664 214.679669 
L 179.449564 214.076386 
L 180.749465 213.220112 
L 182.049365 212.116345 
L 183.674225 210.399498 
L 185.299101 208.324198 
L 186.923976 205.91122 
L 188.873827 202.604065 
L 191.148653 198.238989 
L 193.748454 192.687599 
L 196.67323 185.895318 
L 201.222866 174.684324 
L 206.747524 161.139376 
L 209.672366 154.495676 
L 212.272232 149.127346 
L 214.547106 144.958068 
L 216.497006 141.842152 
L 218.121914 139.602977 
L 219.746822 137.712785 
L 221.371747 136.190427 
L 222.671663 135.247764 
L 223.971596 134.556368 
L 225.271529 134.120648 
L 226.571462 133.943419 
L 227.871395 134.025793 
L 229.171312 134.367268 
L 230.471245 134.965619 
L 231.771178 135.817071 
L 233.071111 136.916125 
L 234.69602 138.627321 
L 236.320944 140.69723 
L 237.94582 143.105189 
L 239.89567 146.406846 
L 242.170659 150.766314 
L 244.77046 156.312537 
L 247.695399 163.100712 
L 252.24505 174.309192 
L 257.76979 187.857626 
L 260.694566 194.505968 
L 263.29453 199.879899 
L 265.569356 204.055112 
L 267.519207 207.17679 
L 269.144245 209.421157 
L 270.769121 211.316892 
L 272.393996 212.845033 
L 273.693897 213.792475 
L 274.993797 214.488758 
L 276.29386 214.929431 
L 277.593761 215.111658 
L 278.893661 215.034281 
L 280.193562 214.69778 
L 281.493462 214.104339 
L 282.793525 213.257731 
L 284.093426 212.163369 
L 285.718302 210.457847 
L 287.343177 208.393305 
L 288.968053 205.990387 
L 290.918066 202.694251 
L 293.192892 198.340391 
L 295.792693 192.799357 
L 298.717632 186.015315 
L 303.267284 174.809376 
L 309.116999 160.493019 
L 312.041937 153.901296 
L 314.641738 148.595374 
L 316.916564 144.491886 
L 318.866578 141.439687 
L 320.491453 139.258076 
L 322.116329 137.428895 
L 323.741205 135.970407 
L 325.041105 135.080419 
L 326.341168 134.44279 
L 327.641069 134.061557 
L 328.940969 133.939208 
L 330.24087 134.076483 
L 331.54077 134.472511 
L 332.840833 135.124781 
L 334.140734 136.029083 
L 335.440634 137.179678 
L 337.06551 138.952867 
L 338.690386 141.081518 
L 340.640399 144.074954 
L 342.59025 147.506379 
L 344.865076 151.997144 
L 347.465039 157.663807 
L 350.714791 165.334896 
L 362.739196 194.397001 
L 365.338997 199.782098 
L 367.613823 203.969138 
L 369.563836 207.102315 
L 371.188712 209.357091 
L 372.813587 211.263868 
L 374.438463 212.803573 
L 375.738363 213.760572 
L 377.038426 214.466632 
L 378.338327 214.91719 
L 379.638228 215.10941 
L 380.938128 215.042027 
L 382.238029 214.715477 
L 383.538092 214.131877 
L 384.837992 213.294914 
L 386.137893 212.209979 
L 387.762768 210.515803 
L 389.387644 208.462041 
L 391.012682 206.069204 
L 392.962533 202.78411 
L 395.237359 198.441509 
L 397.837322 192.910908 
L 398.487273 191.449066 
L 398.487273 191.449066 
" clip-path="url(#p496bac6b44)" style="fill: none; stroke: #1f77b4; stroke-width: 1.5; stroke-linecap: square"/>
   </g>
   <g id="line2d_34">
    <path d="M 73.832727 174.528018 
L 79.357305 160.991922 
L 82.282081 154.359886 
L 84.88188 149.005629 
L 87.156703 144.851233 
L 89.106552 141.74974 
L 90.731434 139.523615 
L 92.356294 137.647256 
L 93.981169 136.139388 
L 95.28107 135.208704 
L 96.58097 134.529529 
L 97.880871 134.106203 
L 99.180771 133.941455 
L 100.480672 134.036332 
L 101.780572 134.390224 
L 103.080473 135.000882 
L 104.380374 135.864379 
L 105.680274 136.975194 
L 107.30515 138.70053 
L 108.930025 140.783881 
L 110.554901 143.204387 
L 112.504736 146.519791 
L 114.779562 150.893246 
L 117.379363 156.452374 
L 120.304139 163.250792 
L 124.853791 174.465501 
L 130.378352 188.005159 
L 133.303128 194.641871 
L 135.902929 200.001769 
L 138.177755 204.162144 
L 140.127606 207.269398 
L 141.752481 209.500738 
L 143.377357 211.382639 
L 145.002233 212.89629 
L 146.302133 213.831796 
L 147.602034 214.51586 
L 148.901934 214.944138 
L 150.201819 215.113862 
L 151.501719 215.023981 
L 152.80162 214.675065 
L 154.10152 214.069316 
L 155.401421 213.210642 
L 156.701321 212.10454 
L 158.326197 210.384834 
L 159.951073 208.306873 
L 161.575948 205.891363 
L 163.525799 202.581459 
L 165.800625 198.213611 
L 168.40041 192.659625 
L 171.325186 185.865294 
L 175.874838 174.653054 
L 181.399415 161.109859 
L 184.324175 154.468484 
L 186.923976 149.102972 
L 189.198802 144.936662 
L 191.148653 141.823626 
L 192.773529 139.58707 
L 194.398404 137.699627 
L 196.02328 136.180171 
L 197.32318 135.239908 
L 198.623081 134.550957 
L 199.922982 134.117724 
L 201.222866 133.942983 
L 202.522766 134.027866 
L 203.822683 134.371807 
L 205.122616 134.972646 
L 206.422533 135.826498 
L 207.722466 136.927908 
L 209.34739 138.641941 
L 210.972299 140.714534 
L 212.597207 143.125003 
L 214.547106 146.429409 
L 216.821981 150.79167 
L 219.421847 156.340478 
L 222.346688 163.130709 
L 226.896438 174.340446 
L 232.421145 187.887143 
L 235.345986 194.533166 
L 237.94582 199.904295 
L 240.220808 204.076562 
L 242.170659 207.195359 
L 243.795534 209.43713 
L 245.42041 211.330094 
L 247.045286 212.855332 
L 248.345349 213.800396 
L 249.645249 214.494235 
L 250.94515 214.932421 
L 252.24505 215.112159 
L 253.544951 215.032273 
L 254.845014 214.693285 
L 256.144915 214.097378 
L 257.444815 213.24837 
L 258.744716 212.151651 
L 260.369591 210.443292 
L 261.994629 208.376067 
L 263.619505 205.970617 
L 265.569356 202.671732 
L 267.844182 198.315057 
L 270.444145 192.771435 
L 273.368922 185.985324 
L 277.918736 174.778114 
L 283.768451 160.46369 
L 286.693227 153.874375 
L 289.293028 148.571327 
L 291.568017 144.470873 
L 293.517867 141.421597 
L 295.142743 139.242627 
L 296.767619 137.416217 
L 298.392657 135.960631 
L 299.692557 135.073066 
L 300.992458 134.437881 
L 302.292358 134.059135 
L 303.592259 133.939273 
L 304.892322 134.079036 
L 306.192222 134.477573 
L 307.492123 135.132266 
L 308.792024 136.03899 
L 310.091924 137.191919 
L 311.716962 138.967923 
L 313.341838 141.099237 
L 315.291689 144.095619 
L 317.24154 147.529706 
L 319.516528 152.023155 
L 322.116329 157.692249 
L 325.36608 165.365351 
L 337.390485 194.424262 
L 339.990286 199.806581 
L 342.265275 203.990675 
L 344.215126 207.12095 
L 345.840001 209.373151 
L 347.465039 211.277157 
L 349.089915 212.813981 
L 350.389816 213.768602 
L 351.689716 214.472196 
L 352.989617 214.920288 
L 354.289517 215.110021 
L 355.58958 215.040129 
L 356.889481 214.711091 
L 358.189381 214.125025 
L 359.489282 213.285662 
L 360.789182 212.19837 
L 362.41422 210.501358 
L 364.039096 208.44489 
L 365.663972 206.049521 
L 367.613823 202.761678 
L 369.888811 198.41624 
L 372.488612 192.883034 
L 375.413388 186.105217 
L 379.963203 174.903151 
L 385.812918 160.581062 
L 388.737694 153.982134 
L 391.337657 148.667601 
L 393.612483 144.555058 
L 395.562334 141.494108 
L 397.187372 139.30462 
L 398.487273 137.80548 
L 398.487273 137.80548 
" clip-path="url(#p496bac6b44)" style="fill: none; stroke: #ff7f0e; stroke-width: 1.5; stroke-linecap: square"/>
   </g>
   <g id="line2d_35">
    <path d="M 73.832727 53.568844 
L 75.782578 53.712542 
L 77.732429 54.106723 
L 79.68228 54.763316 
L 81.307157 55.525871 
L 82.932031 56.503672 
L 84.556905 57.723041 
L 86.181779 59.221417 
L 87.806653 61.052912 
L 89.106552 62.810924 
L 90.406459 64.89401 
L 91.70636 67.393191 
L 93.006244 70.452495 
L 93.981169 73.256786 
L 94.956095 76.689485 
L 95.93102 81.070783 
L 96.58097 84.819623 
L 97.230921 89.667639 
L 97.880871 96.506847 
L 98.205846 101.351954 
L 98.530821 108.154865 
L 98.855796 119.65585 
L 99.505747 228.085822 
L 99.830722 240.244497 
L 100.480672 252.221413 
L 101.130622 259.170465 
L 101.780572 264.07358 
L 102.755498 269.463552 
L 103.730423 273.50476 
L 104.705349 276.718799 
L 106.005249 280.156492 
L 107.30515 282.923712 
L 108.60505 285.208893 
L 110.229926 287.557877 
L 111.854785 289.470532 
L 113.479661 291.035366 
L 115.104537 292.311213 
L 116.729412 293.338505 
L 118.679263 294.282507 
L 120.629114 294.942583 
L 122.578965 295.340035 
L 124.528816 295.486909 
L 126.478666 295.387516 
L 128.428501 295.038936 
L 130.378352 294.430714 
L 132.003227 293.711872 
L 133.628103 292.782365 
L 135.252979 291.617744 
L 136.877854 290.183353 
L 138.50273 288.429307 
L 140.127606 286.281792 
L 141.427506 284.205702 
L 142.727407 281.715666 
L 144.027307 278.669022 
L 145.002233 275.87812 
L 145.977158 272.464694 
L 146.952084 268.113832 
L 147.602034 264.397622 
L 148.251984 259.603476 
L 148.901934 252.870664 
L 149.226909 248.130436 
L 149.551868 241.533276 
L 149.876843 230.620086 
L 150.526794 122.393957 
L 150.851769 109.494335 
L 151.501719 97.168764 
L 152.151669 90.106293 
L 152.80162 85.146841 
L 153.776545 79.71081 
L 154.751471 75.643163 
L 155.726396 72.411861 
L 157.026296 68.95861 
L 158.326197 66.180583 
L 159.626098 63.887382 
L 161.250973 61.53073 
L 162.875849 59.612147 
L 164.500725 58.042448 
L 166.1256 56.762498 
L 167.75046 55.731621 
L 169.70031 54.783778 
L 171.650161 54.120216 
L 173.600012 53.719489 
L 175.549863 53.569449 
L 177.499714 53.66568 
L 179.449564 54.011 
L 181.399415 54.615793 
L 183.024291 55.33154 
L 184.64915 56.257645 
L 186.274026 57.41841 
L 187.898902 58.848321 
L 189.523777 60.596947 
L 191.148653 62.737676 
L 192.448553 64.806795 
L 193.748454 67.287733 
L 195.048355 70.321798 
L 196.02328 73.099421 
L 196.998205 76.493759 
L 197.973131 80.814579 
L 198.623081 84.498692 
L 199.273031 89.240108 
L 199.922982 95.869768 
L 200.247957 100.509514 
L 200.572916 106.913044 
L 200.897891 117.297099 
L 201.222866 158.897409 
L 201.547841 225.107895 
L 201.872816 238.850097 
L 202.522766 251.546288 
L 203.172717 258.725994 
L 203.822683 263.743092 
L 204.797625 269.225985 
L 205.772583 273.32041 
L 206.747524 276.569149 
L 208.047457 280.038089 
L 209.34739 282.826996 
L 210.647307 285.12827 
L 212.272232 287.492601 
L 213.89714 289.417167 
L 215.522048 290.991723 
L 217.146972 292.275791 
L 218.771881 293.310272 
L 220.72178 294.261945 
L 222.671663 294.928999 
L 224.621563 295.333012 
L 226.571462 295.48623 
L 228.521362 295.393161 
L 230.471245 295.051087 
L 232.421145 294.449729 
L 234.046053 293.737072 
L 235.670977 292.814371 
L 237.295869 291.657452 
L 238.920745 290.232019 
L 240.545783 288.488779 
L 242.170659 286.354821 
L 243.470559 284.292625 
L 244.77046 281.820731 
L 246.07036 278.799156 
L 247.045286 276.034698 
L 248.020374 272.659247 
L 248.995299 268.368072 
L 249.645249 264.715518 
L 250.2952 260.025679 
L 250.94515 253.496043 
L 251.270125 248.952588 
L 251.5951 242.731512 
L 251.920075 232.826252 
L 252.24505 196.410702 
L 252.570026 125.657936 
L 252.895001 110.948416 
L 253.544951 97.857677 
L 254.194901 90.556759 
L 254.845014 85.48068 
L 255.819939 79.95015 
L 256.794865 75.828609 
L 257.76979 72.562268 
L 259.069691 69.077517 
L 260.369591 66.277663 
L 261.669654 63.968263 
L 263.29453 61.596234 
L 264.919406 59.665674 
L 266.544281 58.08623 
L 268.169157 56.798035 
L 269.794195 55.759962 
L 271.744046 54.804442 
L 273.693897 54.133899 
L 275.643748 53.726606 
L 277.593761 53.57021 
L 279.543612 53.660119 
L 281.493462 53.998948 
L 283.443476 54.596876 
L 285.068351 55.30644 
L 286.693227 56.225754 
L 288.318103 57.378828 
L 289.943141 58.799799 
L 291.568017 60.537675 
L 293.192892 62.664881 
L 294.492793 64.72018 
L 295.792693 67.18308 
L 297.092756 70.192246 
L 298.067682 72.943645 
L 299.042607 76.300396 
L 300.017532 80.562305 
L 300.667483 84.183821 
L 301.317433 88.823162 
L 301.967383 95.255744 
L 302.292358 99.706811 
L 302.617334 105.755579 
L 302.942309 115.225211 
L 303.267284 146.392226 
L 303.592259 221.497225 
L 303.917234 237.331162 
L 304.567347 250.843086 
L 305.217297 258.269419 
L 305.867247 263.405876 
L 306.842173 268.984867 
L 307.817098 273.133868 
L 308.792024 276.417992 
L 310.091924 279.918682 
L 311.391987 282.729555 
L 312.691888 285.047112 
L 314.316763 287.426883 
L 315.941639 289.363464 
L 317.566515 290.947801 
L 319.191553 292.240139 
L 320.816428 293.281813 
L 322.766279 294.24118 
L 324.71613 294.915235 
L 326.666143 295.325802 
L 328.615994 295.485377 
L 330.565845 295.398628 
L 332.515858 295.063041 
L 334.465709 294.468538 
L 336.090585 293.762052 
L 337.71546 292.846136 
L 339.340336 291.696884 
L 340.965374 290.280372 
L 342.59025 288.547852 
L 344.215126 286.427351 
L 345.515026 284.378927 
L 346.814927 281.924973 
L 348.11499 278.928124 
L 349.089915 276.189671 
L 350.06484 272.851426 
L 351.039766 268.618406 
L 351.689716 265.027416 
L 352.339666 260.437512 
L 352.989617 254.099127 
L 353.314592 249.736755 
L 353.639567 243.850914 
L 353.964542 234.779341 
L 354.289517 208.91596 
L 354.614655 129.69812 
L 354.93963 112.538303 
L 355.58958 98.575781 
L 356.23953 91.019625 
L 356.889481 85.82136 
L 357.864406 80.193084 
L 358.839332 76.016278 
L 359.814257 72.714193 
L 361.114157 69.197439 
L 362.41422 66.375484 
L 363.714121 64.049716 
L 365.338997 61.662167 
L 366.963872 59.719554 
L 368.588748 58.130305 
L 370.213786 56.833835 
L 371.838662 55.788528 
L 373.788513 54.825308 
L 375.738363 54.147765 
L 377.688377 53.733901 
L 379.638228 53.571155 
L 381.588078 53.654735 
L 383.538092 53.987083 
L 385.487942 54.578174 
L 387.112818 55.28157 
L 388.737694 56.194105 
L 390.362732 57.339533 
L 391.987608 58.751613 
L 393.612483 60.478787 
L 395.237359 62.592598 
L 396.537259 64.634191 
L 397.837322 67.079251 
L 398.487273 68.492716 
L 398.487273 68.492716 
" clip-path="url(#p496bac6b44)" style="fill: none; stroke: #2ca02c; stroke-width: 1.5; stroke-linecap: square"/>
   </g>
   <g id="patch_3">
    <path d="M 57.6 307.584 
L 57.6 41.472 
" style="fill: none; stroke: #000000; stroke-width: 0.8; stroke-linejoin: miter; stroke-linecap: square"/>
   </g>
   <g id="patch_4">
    <path d="M 414.72 307.584 
L 414.72 41.472 
" style="fill: none; stroke: #000000; stroke-width: 0.8; stroke-linejoin: miter; stroke-linecap: square"/>
   </g>
   <g id="patch_5">
    <path d="M 57.6 307.584 
L 414.72 307.584 
" style="fill: none; stroke: #000000; stroke-width: 0.8; stroke-linejoin: miter; stroke-linecap: square"/>
   </g>
   <g id="patch_6">
    <path d="M 57.6 41.472 
L 414.72 41.472 
" style="fill: none; stroke: #000000; stroke-width: 0.8; stroke-linejoin: miter; stroke-linecap: square"/>
   </g>
   <g id="text_19">
    <!-- Time series of moving object z-axis -->
    <g transform="translate(130.223437 35.472) scale(0.12 -0.12)">
     <defs>
      <path id="DejaVuSans-54" d="M -19 4666 
L 3928 4666 
L 3928 4134 
L 2272 4134 
L 2272 0 
L 1638 0 
L 1638 4134 
L -19 4134 
L -19 4666 
z
" transform="scale(0.015625)"/>
      <path id="DejaVuSans-69" d="M 603 3500 
L 1178 3500 
L 1178 0 
L 603 0 
L 603 3500 
z
M 603 4863 
L 1178 4863 
L 1178 4134 
L 603 4134 
L 603 4863 
z
" transform="scale(0.015625)"/>
      <path id="DejaVuSans-65" d="M 3597 1894 
L 3597 1613 
L 953 1613 
Q 991 1019 1311 708 
Q 1631 397 2203 397 
Q 2534 397 2845 478 
Q 3156 559 3463 722 
L 3463 178 
Q 3153 47 2828 -22 
Q 2503 -91 2169 -91 
Q 1331 -91 842 396 
Q 353 884 353 1716 
Q 353 2575 817 3079 
Q 1281 3584 2069 3584 
Q 2775 3584 3186 3129 
Q 3597 2675 3597 1894 
z
M 3022 2063 
Q 3016 2534 2758 2815 
Q 2500 3097 2075 3097 
Q 1594 3097 1305 2825 
Q 1016 2553 972 2059 
L 3022 2063 
z
" transform="scale(0.015625)"/>
      <path id="DejaVuSans-72" d="M 2631 2963 
Q 2534 3019 2420 3045 
Q 2306 3072 2169 3072 
Q 1681 3072 1420 2755 
Q 1159 2438 1159 1844 
L 1159 0 
L 581 0 
L 581 3500 
L 1159 3500 
L 1159 2956 
Q 1341 3275 1631 3429 
Q 1922 3584 2338 3584 
Q 2397 3584 2469 3576 
Q 2541 3569 2628 3553 
L 2631 2963 
z
" transform="scale(0.015625)"/>
      <path id="DejaVuSans-6f" d="M 1959 3097 
Q 1497 3097 1228 2736 
Q 959 2375 959 1747 
Q 959 1119 1226 758 
Q 1494 397 1959 397 
Q 2419 397 2687 759 
Q 2956 1122 2956 1747 
Q 2956 2369 2687 2733 
Q 2419 3097 1959 3097 
z
M 1959 3584 
Q 2709 3584 3137 3096 
Q 3566 2609 3566 1747 
Q 3566 888 3137 398 
Q 2709 -91 1959 -91 
Q 1206 -91 779 398 
Q 353 888 353 1747 
Q 353 2609 779 3096 
Q 1206 3584 1959 3584 
z
" transform="scale(0.015625)"/>
      <path id="DejaVuSans-66" d="M 2375 4863 
L 2375 4384 
L 1825 4384 
Q 1516 4384 1395 4259 
Q 1275 4134 1275 3809 
L 1275 3500 
L 2222 3500 
L 2222 3053 
L 1275 3053 
L 1275 0 
L 697 0 
L 697 3053 
L 147 3053 
L 147 3500 
L 697 3500 
L 697 3744 
Q 697 4328 969 4595 
Q 1241 4863 1831 4863 
L 2375 4863 
z
" transform="scale(0.015625)"/>
      <path id="DejaVuSans-76" d="M 191 3500 
L 800 3500 
L 1894 563 
L 2988 3500 
L 3597 3500 
L 2284 0 
L 1503 0 
L 191 3500 
z
" transform="scale(0.015625)"/>
      <path id="DejaVuSans-6e" d="M 3513 2113 
L 3513 0 
L 2938 0 
L 2938 2094 
Q 2938 2591 2744 2837 
Q 2550 3084 2163 3084 
Q 1697 3084 1428 2787 
Q 1159 2491 1159 1978 
L 1159 0 
L 581 0 
L 581 3500 
L 1159 3500 
L 1159 2956 
Q 1366 3272 1645 3428 
Q 1925 3584 2291 3584 
Q 2894 3584 3203 3211 
Q 3513 2838 3513 2113 
z
" transform="scale(0.015625)"/>
      <path id="DejaVuSans-67" d="M 2906 1791 
Q 2906 2416 2648 2759 
Q 2391 3103 1925 3103 
Q 1463 3103 1205 2759 
Q 947 2416 947 1791 
Q 947 1169 1205 825 
Q 1463 481 1925 481 
Q 2391 481 2648 825 
Q 2906 1169 2906 1791 
z
M 3481 434 
Q 3481 -459 3084 -895 
Q 2688 -1331 1869 -1331 
Q 1566 -1331 1297 -1286 
Q 1028 -1241 775 -1147 
L 775 -588 
Q 1028 -725 1275 -790 
Q 1522 -856 1778 -856 
Q 2344 -856 2625 -561 
Q 2906 -266 2906 331 
L 2906 616 
Q 2728 306 2450 153 
Q 2172 0 1784 0 
Q 1141 0 747 490 
Q 353 981 353 1791 
Q 353 2603 747 3093 
Q 1141 3584 1784 3584 
Q 2172 3584 2450 3431 
Q 2728 3278 2906 2969 
L 2906 3500 
L 3481 3500 
L 3481 434 
z
" transform="scale(0.015625)"/>
      <path id="DejaVuSans-62" d="M 3116 1747 
Q 3116 2381 2855 2742 
Q 2594 3103 2138 3103 
Q 1681 3103 1420 2742 
Q 1159 2381 1159 1747 
Q 1159 1113 1420 752 
Q 1681 391 2138 391 
Q 2594 391 2855 752 
Q 3116 1113 3116 1747 
z
M 1159 2969 
Q 1341 3281 1617 3432 
Q 1894 3584 2278 3584 
Q 2916 3584 3314 3078 
Q 3713 2572 3713 1747 
Q 3713 922 3314 415 
Q 2916 -91 2278 -91 
Q 1894 -91 1617 61 
Q 1341 213 1159 525 
L 1159 0 
L 581 0 
L 581 4863 
L 1159 4863 
L 1159 2969 
z
" transform="scale(0.015625)"/>
      <path id="DejaVuSans-6a" d="M 603 3500 
L 1178 3500 
L 1178 -63 
Q 1178 -731 923 -1031 
Q 669 -1331 103 -1331 
L -116 -1331 
L -116 -844 
L 38 -844 
Q 366 -844 484 -692 
Q 603 -541 603 -63 
L 603 3500 
z
M 603 4863 
L 1178 4863 
L 1178 4134 
L 603 4134 
L 603 4863 
z
" transform="scale(0.015625)"/>
      <path id="DejaVuSans-63" d="M 3122 3366 
L 3122 2828 
Q 2878 2963 2633 3030 
Q 2388 3097 2138 3097 
Q 1578 3097 1268 2742 
Q 959 2388 959 1747 
Q 959 1106 1268 751 
Q 1578 397 2138 397 
Q 2388 397 2633 464 
Q 2878 531 3122 666 
L 3122 134 
Q 2881 22 2623 -34 
Q 2366 -91 2075 -91 
Q 1284 -91 818 406 
Q 353 903 353 1747 
Q 353 2603 823 3093 
Q 1294 3584 2113 3584 
Q 2378 3584 2631 3529 
Q 2884 3475 3122 3366 
z
" transform="scale(0.015625)"/>
      <path id="DejaVuSans-7a" d="M 353 3500 
L 3084 3500 
L 3084 2975 
L 922 459 
L 3084 459 
L 3084 0 
L 275 0 
L 275 525 
L 2438 3041 
L 353 3041 
L 353 3500 
z
" transform="scale(0.015625)"/>
      <path id="DejaVuSans-2d" d="M 313 2009 
L 1997 2009 
L 1997 1497 
L 313 1497 
L 313 2009 
z
" transform="scale(0.015625)"/>
      <path id="DejaVuSans-61" d="M 2194 1759 
Q 1497 1759 1228 1600 
Q 959 1441 959 1056 
Q 959 750 1161 570 
Q 1363 391 1709 391 
Q 2188 391 2477 730 
Q 2766 1069 2766 1631 
L 2766 1759 
L 2194 1759 
z
M 3341 1997 
L 3341 0 
L 2766 0 
L 2766 531 
Q 2569 213 2275 61 
Q 1981 -91 1556 -91 
Q 1019 -91 701 211 
Q 384 513 384 1019 
Q 384 1609 779 1909 
Q 1175 2209 1959 2209 
L 2766 2209 
L 2766 2266 
Q 2766 2663 2505 2880 
Q 2244 3097 1772 3097 
Q 1472 3097 1187 3025 
Q 903 2953 641 2809 
L 641 3341 
Q 956 3463 1253 3523 
Q 1550 3584 1831 3584 
Q 2591 3584 2966 3190 
Q 3341 2797 3341 1997 
z
" transform="scale(0.015625)"/>
     </defs>
     <use xlink:href="#DejaVuSans-54"/>
     <use xlink:href="#DejaVuSans-69" x="57.958984"/>
     <use xlink:href="#DejaVuSans-6d" x="85.742188"/>
     <use xlink:href="#DejaVuSans-65" x="183.154297"/>
     <use xlink:href="#DejaVuSans-20" x="244.677734"/>
     <use xlink:href="#DejaVuSans-73" x="276.464844"/>
     <use xlink:href="#DejaVuSans-65" x="328.564453"/>
     <use xlink:href="#DejaVuSans-72" x="390.087891"/>
     <use xlink:href="#DejaVuSans-69" x="431.201172"/>
     <use xlink:href="#DejaVuSans-65" x="458.984375"/>
     <use xlink:href="#DejaVuSans-73" x="520.507812"/>
     <use xlink:href="#DejaVuSans-20" x="572.607422"/>
     <use xlink:href="#DejaVuSans-6f" x="604.394531"/>
     <use xlink:href="#DejaVuSans-66" x="665.576172"/>
     <use xlink:href="#DejaVuSans-20" x="700.78125"/>
     <use xlink:href="#DejaVuSans-6d" x="732.568359"/>
     <use xlink:href="#DejaVuSans-6f" x="829.980469"/>
     <use xlink:href="#DejaVuSans-76" x="891.162109"/>
     <use xlink:href="#DejaVuSans-69" x="950.341797"/>
     <use xlink:href="#DejaVuSans-6e" x="978.125"/>
     <use xlink:href="#DejaVuSans-67" x="1041.503906"/>
     <use xlink:href="#DejaVuSans-20" x="1104.980469"/>
     <use xlink:href="#DejaVuSans-6f" x="1136.767578"/>
     <use xlink:href="#DejaVuSans-62" x="1197.949219"/>
     <use xlink:href="#DejaVuSans-6a" x="1261.425781"/>
     <use xlink:href="#DejaVuSans-65" x="1289.208984"/>
     <use xlink:href="#DejaVuSans-63" x="1350.732422"/>
     <use xlink:href="#DejaVuSans-74" x="1405.712891"/>
     <use xlink:href="#DejaVuSans-20" x="1444.921875"/>
     <use xlink:href="#DejaVuSans-7a" x="1476.708984"/>
     <use xlink:href="#DejaVuSans-2d" x="1529.199219"/>
     <use xlink:href="#DejaVuSans-61" x="1565.283203"/>
     <use xlink:href="#DejaVuSans-78" x="1626.5625"/>
     <use xlink:href="#DejaVuSans-69" x="1685.742188"/>
     <use xlink:href="#DejaVuSans-73" x="1713.525391"/>
    </g>
   </g>
   <g id="legend_1">
    <g id="patch_7">
     <path d="M 64.6 93.506375 
L 156.382812 93.506375 
Q 158.382812 93.506375 158.382812 91.506375 
L 158.382812 48.472 
Q 158.382812 46.472 156.382812 46.472 
L 64.6 46.472 
Q 62.6 46.472 62.6 48.472 
L 62.6 91.506375 
Q 62.6 93.506375 64.6 93.506375 
z
" style="fill: #ffffff; opacity: 0.8; stroke: #cccccc; stroke-linejoin: miter"/>
    </g>
    <g id="line2d_36">
     <path d="M 66.6 54.570438 
L 76.6 54.570438 
L 86.6 54.570438 
" style="fill: none; stroke: #1f77b4; stroke-width: 1.5; stroke-linecap: square"/>
    </g>
    <g id="text_20">
     <!-- z(t) -->
     <g transform="translate(94.6 58.070438) scale(0.1 -0.1)">
      <defs>
       <path id="DejaVuSans-28" d="M 1984 4856 
Q 1566 4138 1362 3434 
Q 1159 2731 1159 2009 
Q 1159 1288 1364 580 
Q 1569 -128 1984 -844 
L 1484 -844 
Q 1016 -109 783 600 
Q 550 1309 550 2009 
Q 550 2706 781 3412 
Q 1013 4119 1484 4856 
L 1984 4856 
z
" transform="scale(0.015625)"/>
       <path id="DejaVuSans-29" d="M 513 4856 
L 1013 4856 
Q 1481 4119 1714 3412 
Q 1947 2706 1947 2009 
Q 1947 1309 1714 600 
Q 1481 -109 1013 -844 
L 513 -844 
Q 928 -128 1133 580 
Q 1338 1288 1338 2009 
Q 1338 2731 1133 3434 
Q 928 4138 513 4856 
z
" transform="scale(0.015625)"/>
      </defs>
      <use xlink:href="#DejaVuSans-7a"/>
      <use xlink:href="#DejaVuSans-28" x="52.490234"/>
      <use xlink:href="#DejaVuSans-74" x="91.503906"/>
      <use xlink:href="#DejaVuSans-29" x="130.712891"/>
     </g>
    </g>
    <g id="line2d_37">
     <path d="M 66.6 69.248563 
L 76.6 69.248563 
L 86.6 69.248563 
" style="fill: none; stroke: #ff7f0e; stroke-width: 1.5; stroke-linecap: square"/>
    </g>
    <g id="text_21">
     <!-- v(t) -->
     <g transform="translate(94.6 72.748563) scale(0.1 -0.1)">
      <use xlink:href="#DejaVuSans-76"/>
      <use xlink:href="#DejaVuSans-28" x="59.179688"/>
      <use xlink:href="#DejaVuSans-74" x="98.193359"/>
      <use xlink:href="#DejaVuSans-29" x="137.402344"/>
     </g>
    </g>
    <g id="line2d_38">
     <path d="M 66.6 83.926688 
L 76.6 83.926688 
L 86.6 83.926688 
" style="fill: none; stroke: #2ca02c; stroke-width: 1.5; stroke-linecap: square"/>
    </g>
    <g id="text_22">
     <!-- F(t) (added) -->
     <g transform="translate(94.6 87.426688) scale(0.1 -0.1)">
      <defs>
       <path id="DejaVuSans-46" d="M 628 4666 
L 3309 4666 
L 3309 4134 
L 1259 4134 
L 1259 2759 
L 3109 2759 
L 3109 2228 
L 1259 2228 
L 1259 0 
L 628 0 
L 628 4666 
z
" transform="scale(0.015625)"/>
       <path id="DejaVuSans-64" d="M 2906 2969 
L 2906 4863 
L 3481 4863 
L 3481 0 
L 2906 0 
L 2906 525 
Q 2725 213 2448 61 
Q 2172 -91 1784 -91 
Q 1150 -91 751 415 
Q 353 922 353 1747 
Q 353 2572 751 3078 
Q 1150 3584 1784 3584 
Q 2172 3584 2448 3432 
Q 2725 3281 2906 2969 
z
M 947 1747 
Q 947 1113 1208 752 
Q 1469 391 1925 391 
Q 2381 391 2643 752 
Q 2906 1113 2906 1747 
Q 2906 2381 2643 2742 
Q 2381 3103 1925 3103 
Q 1469 3103 1208 2742 
Q 947 2381 947 1747 
z
" transform="scale(0.015625)"/>
      </defs>
      <use xlink:href="#DejaVuSans-46"/>
      <use xlink:href="#DejaVuSans-28" x="57.519531"/>
      <use xlink:href="#DejaVuSans-74" x="96.533203"/>
      <use xlink:href="#DejaVuSans-29" x="135.742188"/>
      <use xlink:href="#DejaVuSans-20" x="174.755859"/>
      <use xlink:href="#DejaVuSans-28" x="206.542969"/>
      <use xlink:href="#DejaVuSans-61" x="245.556641"/>
      <use xlink:href="#DejaVuSans-64" x="306.835938"/>
      <use xlink:href="#DejaVuSans-64" x="370.3125"/>
      <use xlink:href="#DejaVuSans-65" x="433.789062"/>
      <use xlink:href="#DejaVuSans-64" x="495.3125"/>
      <use xlink:href="#DejaVuSans-29" x="558.789062"/>
     </g>
    </g>
   </g>
  </g>
 </g>
 <defs>
  <clipPath id="p496bac6b44">
   <rect x="57.6" y="41.472" width="357.12" height="266.112"/>
  </clipPath>
 </defs>
</svg>
